<svg xmlns="http://www.w3.org/2000/svg" width="231.319" height="89.978" viewBox="0 0 211.319 79.978">
  <g id="Layer_x0020_1" transform="translate(0 0)">
    <path id="Path_1" data-name="Path 1" d="M.024,73.5a3.483,3.483,0,0,1,1.018-.246,2.631,2.631,0,0,0,1.257-.4,9.995,9.995,0,0,0,.319-3.322V67.658l.024-1.127L2.619,65.7l.024-1.531L2.606,60.32a1.341,1.341,0,0,0-.19-.856,3.126,3.126,0,0,0-1.451-.545,1.838,1.838,0,0,1-.594-.19A.494.494,0,0,1,.243,58.4a2.38,2.38,0,0,1,.38-.057h.84l.441-.012a5.486,5.486,0,0,1,.97.1q1.091.073,2.243.073c.218,0,.538-.012.945-.032,1.091-.061,1.875-.089,2.348-.089a12.358,12.358,0,0,1,2.707.283,9.531,9.531,0,0,1,2.626,1.051,6.817,6.817,0,0,1,1.726,1.527,7.6,7.6,0,0,1,1.337,2.279,7.974,7.974,0,0,1,.456,2.776,7.83,7.83,0,0,1-.505,2.74,7.135,7.135,0,0,1-1.4,2.351,6.921,6.921,0,0,1-1.827,1.5,10.169,10.169,0,0,1-2.816.869,18.656,18.656,0,0,1-2.809.142c-.893,0-1.62-.024-2.182-.069a5.52,5.52,0,0,0-.712-.041.839.839,0,0,0-.129.012l-4.833.1L.024,73.8A.329.329,0,0,1,0,73.671L.024,73.5ZM6.053,73a5.542,5.542,0,0,0,1.822.307,7.607,7.607,0,0,0,2.344-.371,6.649,6.649,0,0,0,2.032-1.055A6.421,6.421,0,0,0,13.7,70.349a7.043,7.043,0,0,0,.8-1.544,8.454,8.454,0,0,0,.331-2.61,8.213,8.213,0,0,0-.65-3.124,5.839,5.839,0,0,0-1.58-2.1A7.035,7.035,0,0,0,9.936,59.5a11.433,11.433,0,0,0-3.329-.469,4.594,4.594,0,0,0-1.822.271,1.979,1.979,0,0,0-.141.165,2.3,2.3,0,0,0-.073.545c0,.1,0,.222.012.364.024.917.036,1.648.036,2.2l-.012,2.683a46.566,46.566,0,0,0,.218,6.578A2.2,2.2,0,0,0,6.053,73ZM26.9,67.517l-4.752.053-.9-.016c-.368,0-.744.012-1.124.036a2,2,0,0,0-.109.485l.012.117v.117l-.012.578a4.587,4.587,0,0,0,.457,1.762,3.5,3.5,0,0,0,1.305,1.6,4.048,4.048,0,0,0,2.113.582,4.452,4.452,0,0,0,1.079-.165,5.416,5.416,0,0,0,1.14-.61l.853-.7.073.477A1.343,1.343,0,0,1,27.02,72a5.14,5.14,0,0,1-1.349,1.184,6.408,6.408,0,0,1-1.657.748,5.968,5.968,0,0,1-1.325.105,4.2,4.2,0,0,1-1.657-.343,4.018,4.018,0,0,1-1.9-1.669,5.337,5.337,0,0,1-.691-2.792,6.05,6.05,0,0,1,.194-1.337,7.165,7.165,0,0,1,.707-1.733,3.427,3.427,0,0,1,.841-1.027,5.47,5.47,0,0,1,1.244-.792,4.625,4.625,0,0,1,1.79-.319,3.508,3.508,0,0,1,3.216,1.782,3.235,3.235,0,0,1,.469,1.544v.165ZM20.276,67.1h.558q.606,0,3.62-.194a1.489,1.489,0,0,0,.582-.1.64.64,0,0,0,.214-.4,1.91,1.91,0,0,0-.238-.841,1.632,1.632,0,0,0-.732-.727,2.428,2.428,0,0,0-1.147-.259,2.7,2.7,0,0,0-2.214,1.038,2.415,2.415,0,0,0-.642,1.483Zm7.035-8.049v-.267c.222-.073.465-.145.735-.222.4-.125.982-.319,1.761-.577h.558v.65q0,9.734-.048,11.6v1.172a5.091,5.091,0,0,0,.105,1.483c.093.141.376.238.852.3a2.9,2.9,0,0,1,.841.165.178.178,0,0,1,.093.17.256.256,0,0,1-.053.186.276.276,0,0,1-.2.057c-.053,0-.469-.012-1.245-.041l-1.56-.057-2,.1a.369.369,0,0,1-.283-.073.225.225,0,0,1-.073-.177.2.2,0,0,1,.077-.178,4.225,4.225,0,0,1,.856-.186,3.291,3.291,0,0,0,.893-.218.6.6,0,0,0,.149-.4q.049-.424.049-2.4l-.012-2.724.036-2.82-.012-2.816.036-1.386a1.037,1.037,0,0,0-.133-.6,1.283,1.283,0,0,0-.554-.36C27.76,59.262,27.469,59.136,27.311,59.056Zm5.734.105a.892.892,0,0,1,.3-.671,1,1,0,0,1,.719-.283,1.054,1.054,0,0,1,.764.319.935.935,0,0,1,.327.679.968.968,0,0,1-.327.691,1.058,1.058,0,0,1-.764.323.972.972,0,0,1-.723-.3A1.018,1.018,0,0,1,33.045,59.161Zm-1.018,6.15.012-.352c.521-.149.8-.238.84-.262a3.8,3.8,0,0,0,.909-.582,4.1,4.1,0,0,0,.8-.877,1.466,1.466,0,0,1,.226-.024l.146.012c.032.38.048.659.048.833q0,.054-.024.533v.626L35,68.636l-.036,3.621a.906.906,0,0,0,.141.614,2.3,2.3,0,0,0,.909.384,7.165,7.165,0,0,1,.707.226.349.349,0,0,1,.036.141.374.374,0,0,1-.061.174c-.307-.008-.707-.028-1.188-.06-.663-.057-1.1-.085-1.313-.085q-.151,0-1.9.048-.358.012-.691.049a.663.663,0,0,1-.19-.041.3.3,0,0,1-.061-.158.322.322,0,0,1,.226-.287c.032-.016.433-.105,1.208-.27a.752.752,0,0,0,.5-.235,1.25,1.25,0,0,0,.2-.788q.024-.9.024-4.958A4.058,4.058,0,0,0,33.433,66a.918.918,0,0,0-.315-.319,3.473,3.473,0,0,0-1.091-.372Zm3.512-.97c.877.008,1.64.04,2.3.1q.7,0,1.018-.024c.15-.008.247-.012.283-.012l1.325.012a3.743,3.743,0,0,0,.44.064.274.274,0,0,1,.129.145.623.623,0,0,1-.073.275,1.769,1.769,0,0,1-.412.064,9.424,9.424,0,0,0-1.491.255c-.057.04-.085.077-.085.113a.864.864,0,0,0,.121.343c.016.041.048.133.1.283l1.18,2.836q.794,1.952,1.467,3.289.46-.879.848-1.81c.259-.622.643-1.6,1.144-2.942a11.943,11.943,0,0,0,.4-1.386,1.5,1.5,0,0,0,.032-.275.478.478,0,0,0-.158-.307,1.2,1.2,0,0,0-.541-.266c-.053-.008-.412-.065-1.079-.174a.654.654,0,0,1-.154-.146v-.105c0-.04,0-.1.012-.17a3.993,3.993,0,0,1,.416-.04l1.4.016c.093,0,.319-.016.675-.041q1.885,0,2.267.036a.263.263,0,0,1,.129.142.487.487,0,0,1-.072.234l-.372.093c-.1.008-.174.016-.23.025a3.047,3.047,0,0,0-1.277.282,3.618,3.618,0,0,0-.566,1.217c-.117.355-.291.8-.517,1.345L43.6,69.3c-.085.215-.182.445-.283.7L41.5,74.232h-.364c-.073-.19-.158-.388-.259-.59l-.893-1.9-2.105-4.954a9.331,9.331,0,0,0-.768-1.559,7.079,7.079,0,0,0-1.511-.5.933.933,0,0,1-.073-.279l.012-.109ZM55.05,67.517l-4.752.053-.9-.016c-.368,0-.744.012-1.124.036a2,2,0,0,0-.109.485l.012.117v.117l-.012.578a4.587,4.587,0,0,0,.457,1.762,3.5,3.5,0,0,0,1.305,1.6,4.05,4.05,0,0,0,2.113.582,4.455,4.455,0,0,0,1.079-.165,5.416,5.416,0,0,0,1.14-.61l.852-.7.073.477a1.4,1.4,0,0,1-.012.178,5.145,5.145,0,0,1-1.349,1.184,6.41,6.41,0,0,1-1.657.748,5.964,5.964,0,0,1-1.325.105,4.2,4.2,0,0,1-1.657-.343,4.016,4.016,0,0,1-1.9-1.669,5.341,5.341,0,0,1-.691-2.792,6.05,6.05,0,0,1,.194-1.337,7.163,7.163,0,0,1,.707-1.733,3.427,3.427,0,0,1,.841-1.027,5.478,5.478,0,0,1,1.245-.792,4.624,4.624,0,0,1,1.79-.319,3.509,3.509,0,0,1,3.216,1.782,3.234,3.234,0,0,1,.468,1.544v.165ZM48.428,67.1h.558q.606,0,3.62-.194a1.493,1.493,0,0,0,.582-.1.641.641,0,0,0,.214-.4,1.91,1.91,0,0,0-.238-.841,1.629,1.629,0,0,0-.731-.727,2.428,2.428,0,0,0-1.147-.259,2.7,2.7,0,0,0-2.214,1.038,2.414,2.414,0,0,0-.643,1.483Zm6.914,6.716-.049-.158a.559.559,0,0,1,.109-.255l.7-.141.99-.182a.331.331,0,0,0,.166-.166A3.164,3.164,0,0,0,57.33,72q0-4.055-.048-4.683a1.38,1.38,0,0,0-.21-.792,1.726,1.726,0,0,0-.849-.263,2.64,2.64,0,0,1-.639-.153l.048-.352a6.83,6.83,0,0,0,1.665-.873,4.444,4.444,0,0,0,1-1.394l.392.012c.044.392.069,1.265.069,2.614l-.012.2a1.568,1.568,0,0,0,.024.222,7.049,7.049,0,0,1,1.131-1.5l.275-.271a1.76,1.76,0,0,1,.323-.3,2.832,2.832,0,0,1,1.236-.5,1.124,1.124,0,0,1,.857.351,1.19,1.19,0,0,1,.335.857.834.834,0,0,1-.238.63,1.054,1.054,0,0,1-.739.3A2.809,2.809,0,0,1,61.2,65.9a2.893,2.893,0,0,0-.739-.206.746.746,0,0,0-.465.109,3.945,3.945,0,0,0-.808,1.071A2.184,2.184,0,0,0,58.821,68l.06,1.968.024,2.368a1.975,1.975,0,0,0,.093.525.751.751,0,0,0,.238.2q1.279.109,1.515.158c.109.008.19.016.246.024a1.407,1.407,0,0,1,.712.141.194.194,0,0,1,.105.178.359.359,0,0,1-.093.186L60.4,73.723l-.5-.012-.719.012H57.98l-.65.048-1.988.048Zm8.388-14.66a.892.892,0,0,1,.3-.671,1,1,0,0,1,.719-.283,1.054,1.054,0,0,1,.764.319.935.935,0,0,1,.327.679.967.967,0,0,1-.327.691,1.058,1.058,0,0,1-.764.323.972.972,0,0,1-.723-.3A1.019,1.019,0,0,1,63.73,59.161Zm-1.018,6.15.012-.352c.522-.149.8-.238.84-.262a3.8,3.8,0,0,0,.909-.582,4.1,4.1,0,0,0,.8-.877,1.462,1.462,0,0,1,.226-.024l.145.012c.032.38.049.659.049.833,0,.036-.009.214-.025.533v.626l.012,3.418-.036,3.621a.9.9,0,0,0,.142.614,2.294,2.294,0,0,0,.909.384,7.133,7.133,0,0,1,.707.226.343.343,0,0,1,.036.141.376.376,0,0,1-.06.174c-.307-.008-.707-.028-1.188-.06-.662-.057-1.1-.085-1.313-.085q-.152,0-1.9.048-.357.012-.691.049a.662.662,0,0,1-.19-.041.3.3,0,0,1-.061-.158.322.322,0,0,1,.226-.287c.032-.016.432-.105,1.208-.27a.752.752,0,0,0,.5-.235,1.252,1.252,0,0,0,.2-.788q.025-.9.024-4.958A4.058,4.058,0,0,0,64.118,66a.912.912,0,0,0-.315-.319A3.467,3.467,0,0,0,62.712,65.31Zm4.424,8.025a5.071,5.071,0,0,1,.683-.141,2.08,2.08,0,0,0,.893-.251.974.974,0,0,0,.146-.65l.024-.428q.012-.236.012-.606l-.024-3.64a1.587,1.587,0,0,0-.19-.95,2.074,2.074,0,0,0-1.18-.461v-.424a3.48,3.48,0,0,0,1.305-.614,4.158,4.158,0,0,0,1.119-1.435l.412.012q.036.564.036.8v.792l.012.214c.093-.061.206-.142.331-.234a7.437,7.437,0,0,1,1.463-.873,6.814,6.814,0,0,1,1.333-.469,3.243,3.243,0,0,1,.832-.1,2.722,2.722,0,0,1,1.673.521,2.36,2.36,0,0,1,.909,1.228,11.875,11.875,0,0,1,.21,2.808v1.79c0,.049-.008.206-.02.473s-.016.578-.016.925a4.587,4.587,0,0,0,.073,1.059.7.7,0,0,0,.3.307,2.748,2.748,0,0,1,1.321.367v.093a.8.8,0,0,1-.073.3H78.5l-1.568-.024-1.548.036c-.57.016-1.1.012-1.58-.012l-.073-.275a.463.463,0,0,1,.081-.21,2.928,2.928,0,0,1,.9-.19A2.044,2.044,0,0,0,75.186,73a1.435,1.435,0,0,0,.319-.19,1.146,1.146,0,0,0,.141-.473c0-.057-.008-.166-.024-.331q-.036-.539-.048-2.7v-.614l.024-.945a2.851,2.851,0,0,0-.614-2.1,2.306,2.306,0,0,0-1.645-.578,3.645,3.645,0,0,0-1.548.352,5.182,5.182,0,0,0-1.467,1.047q-.024.569-.024.97l.036,2.61c0,1.366.02,2.2.061,2.505a.538.538,0,0,0,.081.263.83.83,0,0,0,.38.154c.19.036.408.093.655.165s.412.113.493.129a.449.449,0,0,1,.319.243l-.012.243H71.076l-2.537-.024H67.124L67.1,73.57a1.073,1.073,0,0,1,.036-.234Zm14.215,1.2c-.093-.048-.4-.178-.913-.392a5.781,5.781,0,0,1-1.14-.869.958.958,0,0,1-.238-.627.716.716,0,0,1,.178-.5,2.532,2.532,0,0,1,1.022-.521,10.765,10.765,0,0,0,1.261-.485c-.105-.073-.267-.174-.485-.311a3.382,3.382,0,0,1-1.758-3.019A3.615,3.615,0,0,1,80.4,65.12a3.918,3.918,0,0,1,2.869-1.095,4.556,4.556,0,0,1,1.459.226,5.437,5.437,0,0,1,1.124.594c.315.2.5.307.558.331a1.37,1.37,0,0,0,.424.061c.133,0,.461-.032.978-.1s.82-.1.917-.1a.879.879,0,0,1,.449.1,1.563,1.563,0,0,1,.142.768.343.343,0,0,1-.1.275.413.413,0,0,1-.291.093,5.172,5.172,0,0,1-1.095-.194,5.888,5.888,0,0,0-.929-.194,1.941,1.941,0,0,0-.222.024,4.266,4.266,0,0,1,.505,1.863,3.418,3.418,0,0,1-.533,1.741A3.546,3.546,0,0,1,85.182,70.9a4.162,4.162,0,0,1-1.9.473c-.045,0-.182,0-.4-.012a3.756,3.756,0,0,0-1.984.546c-.291.181-.437.352-.437.509s.142.332.424.489a10.787,10.787,0,0,0,4.255.7,5.807,5.807,0,0,1,2.113.388A2.425,2.425,0,0,1,88.4,75a2.741,2.741,0,0,1,.384,1.378,2.781,2.781,0,0,1-.65,1.77,4.543,4.543,0,0,1-1.98,1.321,8.464,8.464,0,0,1-3.047.509,7.4,7.4,0,0,1-2.926-.46,3.834,3.834,0,0,1-1.463-1,1.73,1.73,0,0,1-.432-1.071,2.184,2.184,0,0,1,.477-1.152,5.307,5.307,0,0,1,1.984-1.442c.3-.15.5-.259.606-.319Zm-.5-6.756a4.312,4.312,0,0,0,.319,1.774,2.327,2.327,0,0,0,.881,1.063,2.124,2.124,0,0,0,1.127.348,2.187,2.187,0,0,0,1.717-.784,3.548,3.548,0,0,0,.683-2.388,3.726,3.726,0,0,0-.711-2.457,2.189,2.189,0,0,0-1.726-.845,1.979,1.979,0,0,0-1.709.8,4.276,4.276,0,0,0-.582,2.489ZM80.471,78.7a4.362,4.362,0,0,0,2.719.82,7.676,7.676,0,0,0,2.336-.368,3.4,3.4,0,0,0,1.7-1.055,2.141,2.141,0,0,0,.538-1.3,1.627,1.627,0,0,0-.19-.744,1.738,1.738,0,0,0-.509-.61,2.472,2.472,0,0,0-.856-.38,5.426,5.426,0,0,0-1.071-.154c-1.317-.105-2.129-.153-2.424-.153a3.419,3.419,0,0,0-2.275.845,2,2,0,0,0-.772,1.572A1.971,1.971,0,0,0,80.471,78.7Zm13.2-18.365.489-1.786a1.006,1.006,0,0,1,.129-.457.238.238,0,0,1,.19-.1c.141,0,.3.17.481.509a1.7,1.7,0,0,0,.332.473.83.83,0,0,0,.38.133l.117-.012.509.048,2.792.037,3.3-.013h.97l1.834-.032a2.139,2.139,0,0,1,.3.02q.806.073.994.073a.366.366,0,0,0,.283-.117c.024-.032.154-.291.392-.784.105-.222.23-.335.38-.335a.752.752,0,0,1,.239.048,1.678,1.678,0,0,1,.061.42l-.012.473.012,1q0,.364-.061,2.348a.572.572,0,0,1-.049.238.453.453,0,0,1-.222.08.211.211,0,0,1-.17-.089,1.819,1.819,0,0,1-.178-.542,3.988,3.988,0,0,0-.59-1.511,1.315,1.315,0,0,0-.679-.42,10.229,10.229,0,0,0-2.117-.13h-2c-.012.316-.02.6-.02.865l.093,7.342c0,.291-.016.845-.049,1.657l.012,1.572-.012.877a.963.963,0,0,0,.142.59,1.645,1.645,0,0,0,.772.343c.728.182,1.212.291,1.458.332a1.046,1.046,0,0,1,.368.1v.384l-1.685-.044c-.925,0-1.621-.024-2.085-.053l-1.734.077-1.264.069a4.892,4.892,0,0,1-.655-.024l-.165-.069a.587.587,0,0,1,.1-.343,1.019,1.019,0,0,1,.441-.121A10.572,10.572,0,0,0,98.67,73.2a2.4,2.4,0,0,0,.889-.371.622.622,0,0,0,.17-.356,12.882,12.882,0,0,0,.105-2.053V68.41l-.048-4.4-.048-.946L99.725,59.9H97.818a5.85,5.85,0,0,0-2.073.206,7.345,7.345,0,0,0-1.729,1.879c-.255.387-.477.582-.671.582l-.105-.024a.236.236,0,0,1-.048-.129,5.564,5.564,0,0,1,.19-.853c.161-.606.259-1.018.291-1.232ZM106.509,73.82l-.048-.158a.557.557,0,0,1,.109-.255l.7-.141.99-.182a.331.331,0,0,0,.166-.166A3.165,3.165,0,0,0,108.5,72q0-4.055-.048-4.683a1.383,1.383,0,0,0-.21-.792,1.726,1.726,0,0,0-.849-.263,2.633,2.633,0,0,1-.638-.153l.048-.352a6.827,6.827,0,0,0,1.665-.873,4.449,4.449,0,0,0,1-1.394l.392.012c.044.392.069,1.265.069,2.614l-.012.2a1.58,1.58,0,0,0,.024.222,7.049,7.049,0,0,1,1.131-1.5l.275-.271a1.759,1.759,0,0,1,.323-.3,2.834,2.834,0,0,1,1.237-.5,1.124,1.124,0,0,1,.856.351,1.189,1.189,0,0,1,.336.857.834.834,0,0,1-.239.63,1.054,1.054,0,0,1-.739.3,2.806,2.806,0,0,1-.748-.206,2.893,2.893,0,0,0-.739-.206.746.746,0,0,0-.465.109,3.945,3.945,0,0,0-.808,1.071A2.182,2.182,0,0,0,109.988,68l.06,1.968.024,2.368a1.961,1.961,0,0,0,.093.525.757.757,0,0,0,.238.2q1.279.109,1.515.158c.109.008.19.016.247.024a1.407,1.407,0,0,1,.711.141.194.194,0,0,1,.105.178.357.357,0,0,1-.093.186l-1.317-.024-.5-.012-.719.012h-1.208l-.65.048-1.988.048Zm16.316-1.7a.607.607,0,0,1,.073.226,1.564,1.564,0,0,1-.287.626,2.544,2.544,0,0,1-.816.861,1.49,1.49,0,0,1-.784.178,1.559,1.559,0,0,1-1.285-.526,2.244,2.244,0,0,1-.368-1.107l-1.325.921a5.6,5.6,0,0,1-1.067.509,5.807,5.807,0,0,1-1.422.153,1.216,1.216,0,0,1-1.3-1.289,3.243,3.243,0,0,1,1-1.951,7.4,7.4,0,0,1,2.727-1.855c.808-.339,1.3-.558,1.483-.65.016-.263.024-.554.024-.865a3.536,3.536,0,0,0-.424-2.061,1.437,1.437,0,0,0-1.2-.542,2.251,2.251,0,0,0-1.536.651,2.852,2.852,0,0,0-.666,1.539,2.708,2.708,0,0,1-.271.675,1.656,1.656,0,0,1-.812.335.8.8,0,0,1-.473-.153.244.244,0,0,1-.117-.194,4.1,4.1,0,0,1,.659-1.4,4.371,4.371,0,0,1,1.657-1.636,3.8,3.8,0,0,1,1.746-.542,4.562,4.562,0,0,1,1.511.186,2,2,0,0,1,.877.647,2.034,2.034,0,0,1,.461,1.01,18.2,18.2,0,0,1,.048,1.867l-.036,1.891.012,1.382c0,.182,0,.335-.012.465-.008.226-.012.4-.012.509a.879.879,0,0,0,.226.63.722.722,0,0,0,.538.238.93.93,0,0,0,.772-.453l.145-.19a1.03,1.03,0,0,1,.259-.085Zm-3.443-.36q.085-1.5.085-2.121c0-.215-.012-.5-.036-.865a8.23,8.23,0,0,0-1.705.865,5.063,5.063,0,0,0-1.426,1.341,1.827,1.827,0,0,0-.384,1.031,1.027,1.027,0,0,0,.319.772,1.09,1.09,0,0,0,.8.307,2.126,2.126,0,0,0,.9-.263A5.875,5.875,0,0,0,119.383,71.764Zm3.22,1.572a5.049,5.049,0,0,1,.683-.141,2.082,2.082,0,0,0,.893-.251.974.974,0,0,0,.145-.65l.025-.428q.012-.236.012-.606l-.024-3.64a1.585,1.585,0,0,0-.19-.95,2.073,2.073,0,0,0-1.18-.461v-.424a3.482,3.482,0,0,0,1.305-.614,4.157,4.157,0,0,0,1.119-1.435l.412.012q.036.564.036.8v.792l.012.214c.093-.061.206-.142.331-.234a7.437,7.437,0,0,1,1.463-.873,6.807,6.807,0,0,1,1.333-.469,3.241,3.241,0,0,1,.832-.1,2.721,2.721,0,0,1,1.673.521,2.356,2.356,0,0,1,.909,1.228,11.856,11.856,0,0,1,.21,2.808v1.79c0,.049-.008.206-.02.473s-.016.578-.016.925a4.58,4.58,0,0,0,.073,1.059.7.7,0,0,0,.3.307,2.745,2.745,0,0,1,1.321.367v.093a.8.8,0,0,1-.073.3h-.226l-1.568-.024-1.548.036c-.57.016-1.1.012-1.58-.012l-.073-.275a.459.459,0,0,1,.081-.21,2.927,2.927,0,0,1,.9-.19,2.047,2.047,0,0,0,.473-.069,1.427,1.427,0,0,0,.319-.19,1.142,1.142,0,0,0,.142-.473c0-.057-.008-.166-.024-.331q-.036-.539-.048-2.7v-.614l.024-.945a2.851,2.851,0,0,0-.614-2.1,2.307,2.307,0,0,0-1.645-.578,3.648,3.648,0,0,0-1.548.352,5.18,5.18,0,0,0-1.467,1.047q-.024.569-.024.97l.036,2.61c0,1.366.02,2.2.06,2.505a.546.546,0,0,0,.081.263.833.833,0,0,0,.38.154c.19.036.408.093.655.165s.412.113.493.129a.449.449,0,0,1,.319.243l-.012.243h-1.237l-2.537-.024h-1.415l-.024-.154a1.078,1.078,0,0,1,.037-.234Zm12.7-2.594a8.712,8.712,0,0,0,.662,1.458,3.321,3.321,0,0,0,1.071,1.051,2.585,2.585,0,0,0,1.358.376,2.024,2.024,0,0,0,1.334-.582,1.355,1.355,0,0,0,.473-1.022,2.152,2.152,0,0,0-.549-1.423,5.293,5.293,0,0,0-2.1-1.228,4.984,4.984,0,0,1-2.077-1.253,2.344,2.344,0,0,1-.537-1.519,2.412,2.412,0,0,1,.436-1.426,2.665,2.665,0,0,1,1.2-.929,3.75,3.75,0,0,1,1.414-.315,8.03,8.03,0,0,1,1.5.129,3.842,3.842,0,0,1,1.144.392,17.452,17.452,0,0,1,.153,1.79l.024.38c-.1.008-.194.012-.266.012h-.17a3.442,3.442,0,0,0-1.067-1.568,2.291,2.291,0,0,0-1.418-.577,1.515,1.515,0,0,0-1.131.436,1.553,1.553,0,0,0-.433,1.139,1.443,1.443,0,0,0,.352.954,4.567,4.567,0,0,0,1.644.938,8.084,8.084,0,0,1,1.891.978,2.718,2.718,0,0,1,.873,1.115,3.128,3.128,0,0,1,.283,1.253,2.5,2.5,0,0,1-.537,1.535,2.893,2.893,0,0,1-1.342,1.01,4.349,4.349,0,0,1-1.447.291,6.728,6.728,0,0,1-2.755-.558.442.442,0,0,1-.13-.355c0-.069-.008-.186-.024-.344-.125-1.071-.19-1.7-.19-1.9a.231.231,0,0,1,.061-.19A.555.555,0,0,1,135.3,70.741Zm6.526,9.164c-.008-.093-.012-.174-.012-.251a1.123,1.123,0,0,1,.024-.21l1.184-.238a1.52,1.52,0,0,0,.465-.34,1.574,1.574,0,0,0,.057-.428q0-1.818-.093-6.942l-.036-4.331a4.988,4.988,0,0,0-.13-1.3.484.484,0,0,0-.178-.222,2.97,2.97,0,0,0-1.184-.38l.072-.351a10.845,10.845,0,0,0,1.7-.849,3.516,3.516,0,0,0,.82-.849l.166-.036a.8.8,0,0,1,.27.073c-.008.493-.012.82-.012.978l.012,1.3a6.421,6.421,0,0,1,1.814-.982,5.992,5.992,0,0,1,1.952-.323,4.1,4.1,0,0,1,3.059,1.285,4.55,4.55,0,0,1,1.248,3.309,5.182,5.182,0,0,1-.707,2.7,4.4,4.4,0,0,1-1.948,1.786,5.716,5.716,0,0,1-2.5.594,6.4,6.4,0,0,1-2.445-.582c-.149-.064-.287-.117-.4-.165-.016.634-.025,1.2-.025,1.689a20.052,20.052,0,0,0,.2,4.109c.073.158.3.251.671.283a3.086,3.086,0,0,1,1.265.275.606.606,0,0,1,.238.428l-1.172.024-1.067-.024h-1.774l-1.539-.024Zm3.091-13.564a2.194,2.194,0,0,0-.024.311q0,4.231.085,4.74a2.013,2.013,0,0,0,.663,1.313,3.482,3.482,0,0,0,2.2.606,3.386,3.386,0,0,0,2.5-1.026,3.606,3.606,0,0,0,1.018-2.659,4.4,4.4,0,0,0-1.075-3.12,3.722,3.722,0,0,0-2.841-1.147,3.781,3.781,0,0,0-1.374.243,3.477,3.477,0,0,0-1.148.739Zm17.707,5.782a.607.607,0,0,1,.073.226,1.564,1.564,0,0,1-.287.626,2.548,2.548,0,0,1-.816.861,1.49,1.49,0,0,1-.784.178,1.559,1.559,0,0,1-1.285-.526,2.241,2.241,0,0,1-.368-1.107l-1.326.921a5.571,5.571,0,0,1-1.067.509,5.805,5.805,0,0,1-1.422.153,1.216,1.216,0,0,1-1.3-1.289,3.243,3.243,0,0,1,1-1.951,7.394,7.394,0,0,1,2.727-1.855c.808-.339,1.3-.558,1.483-.65.017-.263.025-.554.025-.865a3.536,3.536,0,0,0-.424-2.061,1.437,1.437,0,0,0-1.2-.542,2.251,2.251,0,0,0-1.535.651,2.852,2.852,0,0,0-.667,1.539,2.707,2.707,0,0,1-.27.675,1.659,1.659,0,0,1-.812.335.8.8,0,0,1-.473-.153.244.244,0,0,1-.117-.194,4.1,4.1,0,0,1,.659-1.4,4.371,4.371,0,0,1,1.657-1.636,3.806,3.806,0,0,1,1.745-.542,4.563,4.563,0,0,1,1.511.186,2,2,0,0,1,.877.647,2.036,2.036,0,0,1,.46,1.01,18.2,18.2,0,0,1,.048,1.867l-.036,1.891.012,1.382c0,.182,0,.335-.012.465-.008.226-.012.4-.012.509a.88.88,0,0,0,.226.63.721.721,0,0,0,.538.238.931.931,0,0,0,.772-.453l.145-.19a1.03,1.03,0,0,1,.259-.085Zm-3.443-.36q.085-1.5.085-2.121c0-.215-.012-.5-.036-.865a8.241,8.241,0,0,0-1.705.865,5.071,5.071,0,0,0-1.426,1.341,1.824,1.824,0,0,0-.384,1.031,1.027,1.027,0,0,0,.319.772,1.09,1.09,0,0,0,.8.307,2.124,2.124,0,0,0,.9-.263A5.869,5.869,0,0,0,159.184,71.764Zm3.245,2.057-.049-.158a.561.561,0,0,1,.109-.255l.7-.141.99-.182a.333.333,0,0,0,.166-.166,3.178,3.178,0,0,0,.073-.917q0-4.055-.049-4.683a1.381,1.381,0,0,0-.21-.792,1.725,1.725,0,0,0-.849-.263,2.637,2.637,0,0,1-.638-.153l.048-.352a6.833,6.833,0,0,0,1.665-.873,4.444,4.444,0,0,0,1-1.394l.392.012q.067.588.069,2.614l-.012.2a1.62,1.62,0,0,0,.024.222,7.04,7.04,0,0,1,1.132-1.5l.275-.271a1.76,1.76,0,0,1,.323-.3,2.831,2.831,0,0,1,1.236-.5,1.124,1.124,0,0,1,.857.351,1.19,1.19,0,0,1,.335.857.834.834,0,0,1-.238.63,1.055,1.055,0,0,1-.739.3,2.81,2.81,0,0,1-.748-.206,2.893,2.893,0,0,0-.739-.206.744.744,0,0,0-.464.109,3.944,3.944,0,0,0-.808,1.071A2.182,2.182,0,0,0,165.908,68l.061,1.968.024,2.368a1.976,1.976,0,0,0,.093.525.759.759,0,0,0,.238.2q1.279.109,1.515.158c.109.008.19.016.247.024a1.407,1.407,0,0,1,.711.141.194.194,0,0,1,.105.178.355.355,0,0,1-.093.186l-1.318-.024-.5-.012-.719.012h-1.208l-.65.048-1.988.048Zm16.074-6.3-4.752.053-.9-.016c-.368,0-.744.012-1.124.036a2.008,2.008,0,0,0-.109.485l.012.117v.117l-.012.578a4.591,4.591,0,0,0,.456,1.762,3.5,3.5,0,0,0,1.305,1.6,4.05,4.05,0,0,0,2.113.582,4.456,4.456,0,0,0,1.079-.165,5.416,5.416,0,0,0,1.139-.61l.853-.7.073.477a1.343,1.343,0,0,1-.012.178,5.141,5.141,0,0,1-1.35,1.184,6.4,6.4,0,0,1-1.657.748,5.968,5.968,0,0,1-1.325.105,4.2,4.2,0,0,1-1.657-.343,4.019,4.019,0,0,1-1.9-1.669,5.341,5.341,0,0,1-.691-2.792,6.047,6.047,0,0,1,.194-1.337,7.182,7.182,0,0,1,.707-1.733,3.426,3.426,0,0,1,.84-1.027,5.477,5.477,0,0,1,1.244-.792,4.627,4.627,0,0,1,1.79-.319,3.508,3.508,0,0,1,3.216,1.782,3.231,3.231,0,0,1,.469,1.544v.165ZM171.88,67.1h.558q.606,0,3.621-.194a1.488,1.488,0,0,0,.582-.1.64.64,0,0,0,.214-.4,1.909,1.909,0,0,0-.238-.841,1.633,1.633,0,0,0-.731-.727,2.428,2.428,0,0,0-1.147-.259,2.7,2.7,0,0,0-2.214,1.038,2.414,2.414,0,0,0-.643,1.483Zm6.889,6.231a5.06,5.06,0,0,1,.683-.141,2.084,2.084,0,0,0,.893-.251.976.976,0,0,0,.145-.65l.024-.428q.012-.236.012-.606l-.025-3.64a1.588,1.588,0,0,0-.19-.95,2.076,2.076,0,0,0-1.18-.461v-.424a3.482,3.482,0,0,0,1.305-.614,4.162,4.162,0,0,0,1.119-1.435l.412.012q.036.564.036.8v.792l.012.214c.093-.061.206-.142.331-.234a7.437,7.437,0,0,1,1.463-.873,6.814,6.814,0,0,1,1.333-.469,3.242,3.242,0,0,1,.833-.1,2.721,2.721,0,0,1,1.673.521,2.36,2.36,0,0,1,.909,1.228,11.88,11.88,0,0,1,.21,2.808v1.79c0,.049-.008.206-.02.473s-.016.578-.016.925a4.581,4.581,0,0,0,.073,1.059.7.7,0,0,0,.3.307,2.746,2.746,0,0,1,1.321.367v.093a.8.8,0,0,1-.073.3h-.226l-1.568-.024-1.548.036c-.57.016-1.1.012-1.58-.012l-.073-.275a.459.459,0,0,1,.081-.21,2.928,2.928,0,0,1,.9-.19,2.037,2.037,0,0,0,.473-.069,1.42,1.42,0,0,0,.319-.19,1.142,1.142,0,0,0,.142-.473c0-.057-.008-.166-.024-.331q-.036-.539-.048-2.7v-.614l.024-.945a2.849,2.849,0,0,0-.614-2.1,2.306,2.306,0,0,0-1.645-.578,3.648,3.648,0,0,0-1.548.352,5.18,5.18,0,0,0-1.467,1.047q-.024.569-.024.97l.036,2.61c0,1.366.02,2.2.06,2.505a.546.546,0,0,0,.081.263.835.835,0,0,0,.38.154c.19.036.408.093.655.165s.412.113.493.129a.449.449,0,0,1,.319.243l-.012.243h-1.236l-2.538-.024h-1.414l-.025-.154a1.1,1.1,0,0,1,.036-.234Zm20.47-1.77.012.776a5.742,5.742,0,0,1-1.826,1.358,5.313,5.313,0,0,1-2.122.388,4.272,4.272,0,0,1-2.392-.7,4.5,4.5,0,0,1-1.644-1.968,5.992,5.992,0,0,1-.574-2.493,4.961,4.961,0,0,1,.7-2.538,4.444,4.444,0,0,1,1.834-1.782,6.256,6.256,0,0,1,2.873-.586,4.611,4.611,0,0,1,2.525.57,1,1,0,0,1,.485.857.85.85,0,0,1-.247.626.871.871,0,0,1-.642.25,1.958,1.958,0,0,1-1.3-.735,3.1,3.1,0,0,0-.792-.622,1.818,1.818,0,0,0-.792-.17,2.163,2.163,0,0,0-1.754.869,4.9,4.9,0,0,0-.97,3.111,4.52,4.52,0,0,0,.994,3.071A3,3,0,0,0,195.926,73a4.163,4.163,0,0,0,1.636-.3,6.724,6.724,0,0,0,1.677-1.128Zm-.145-7.172c.174-.016.319-.028.436-.028h.566l.772-.024,1.006.036.816-.024a7.32,7.32,0,0,1,1.168.081.5.5,0,0,1,.049.186l-.013.089a2.463,2.463,0,0,1-.767.166,2.4,2.4,0,0,0-1.055.27l-.024.137a1.049,1.049,0,0,0,.1.356c.041.1.093.238.153.428.178.582.554,1.713,1.135,3.39.42,1.208.812,2.247,1.168,3.116.214-.477.46-1.083.735-1.814l1-2.808a11.011,11.011,0,0,0,.521-1.838,3.143,3.143,0,0,0,.073-.578.467.467,0,0,0-.154-.331,1.332,1.332,0,0,0-.618-.259,5.667,5.667,0,0,1-.909-.267.306.306,0,0,1-.085-.23.658.658,0,0,1,.166-.093h.736l.792.012,1.188-.012.756.012.19-.012a2.517,2.517,0,0,1,.275.024.224.224,0,0,1,.117.206.32.32,0,0,1-.105.23l-.238.036a2.488,2.488,0,0,0-1.055.343,1.09,1.09,0,0,0-.344.574c-.032.109-.085.247-.153.416-.041.093-.1.25-.174.473s-.17.481-.287.78l-.142.331-.012.06-2.012,5.3L203.4,77.117c-.093.2-.2.445-.332.739a8.191,8.191,0,0,1-.529.925,3.305,3.305,0,0,1-.618.622l-.6.259a1.459,1.459,0,0,1-.38.048,1.1,1.1,0,0,1-.78-.234.831.831,0,0,1-.25-.639.891.891,0,0,1,.368-.691,1.422,1.422,0,0,0,.234-.093l.158-.036a10.9,10.9,0,0,0,1.313.19.962.962,0,0,0,.363-.307,9.752,9.752,0,0,0,.994-1.932,5.059,5.059,0,0,0,.416-1.431,3.483,3.483,0,0,0-.307-1.176l-1.317-3.479q-.273-.673-1.629-4.4a.771.771,0,0,0-.214-.335l-.8-.279-.247-.044a.29.29,0,0,1-.2-.263l.06-.17ZM80.971,54.911c2.608,0,3.8,2.964,5.749,2.964,5.826,0,6.508-10.359,6.468-14.317L92.8,5.289c-.032-3.257-3.539-2.183-5.983-2.628-.746-.136-1.253-1.444.151-1.364,5.179.3,10.3-.2,15.422.1,1.09.062.914,1.16.086,1.2-1.76.089-4.441-.093-4.42,2.244l.292,32.486C98.414,45.2,95.117,57.94,86.726,59.96c-2.207.531-8.057,1.126-8.057-2.4a2.687,2.687,0,0,1,2.3-2.65ZM145.752,3.1a33.893,33.893,0,0,1,.393,5.165c0,1.9-.949,2.113-1.626.577-2.147-4.872-6.541-7.088-11.905-7.09-11.191,0-16.451,11.021-16.451,20.864,0,11.588,4.464,20.342,17.046,20.066,6.061-.733,10.056-2.73,12.851-8.2.629-1.233,1.372-1.041,1.163.423q-1.4,5.558-2.033,7.591c-4.628,1.045-6.5,1.707-11.611,1.707-13.386,0-23.884-6.748-23.884-21.28C109.7,8.292,120.689.269,134.568.269c2.975,0,8.862.9,11.184,2.83Zm29.993-.393a32.724,32.724,0,0,1,.012,7.546c-.062.568-.759.681-.881.087-1.039-5.036-4.248-8.587-9.609-8.587-4.107,0-8.522,2.538-8.522,7.041,0,4.616,6.8,7.522,10.23,9.309,5.825,3.072,12.072,6.026,12.072,13.542,0,8.813-6.856,12.824-14.924,12.824a25.791,25.791,0,0,1-8.512-1.415c-2.195-.788-3.665-1.01-3.38-3.436.282-2.492.308-4.87.531-7.308.154-1.68,1.207-1.394,1.355-.092a11.935,11.935,0,0,0,11.364,10.432c4.617,0,9.455-3.224,9.455-8.242,0-5.164-5.4-7.949-9.377-10.028-5.457-2.851-12.52-6.276-12.52-13.43C153.039,3.613,159.683,0,166.323,0c3.706,0,6.4.528,9.422,2.707Zm32.272,0a32.7,32.7,0,0,1,.013,7.546c-.062.568-.759.681-.881.087C206.11,5.3,202.9,1.752,197.541,1.752c-4.107,0-8.523,2.538-8.523,7.041,0,4.616,6.8,7.522,10.23,9.309,5.825,3.072,12.071,6.026,12.071,13.542,0,8.813-6.856,12.824-14.923,12.824a25.79,25.79,0,0,1-8.512-1.415c-2.2-.788-3.665-1.01-3.38-3.436.282-2.492.308-4.87.531-7.308.154-1.68,1.207-1.394,1.355-.092a11.935,11.935,0,0,0,11.364,10.432c4.617,0,9.455-3.224,9.455-8.242,0-5.164-5.4-7.949-9.377-10.028-5.457-2.851-12.52-6.276-12.52-13.43C185.312,3.613,191.955,0,198.6,0c3.705,0,6.4.528,9.421,2.707Z" fill="#FF6600"/>
  </g>
</svg>
