<?xml version="1.0" encoding="UTF-8"?>
<!DOCTYPE svg PUBLIC "-//W3C//DTD SVG 1.1//EN" "http://www.w3.org/Graphics/SVG/1.1/DTD/svg11.dtd">
<!-- Creator: CorelDRAW -->
<svg xmlns="http://www.w3.org/2000/svg" xml:space="preserve" width="100mm" height="45.0405mm" version="1.1" style="shape-rendering:geometricPrecision; text-rendering:geometricPrecision; image-rendering:optimizeQuality; fill-rule:evenodd; clip-rule:evenodd"
viewBox="0 0 4978.31 2242.26"
 xmlns:xlink="http://www.w3.org/1999/xlink"
 xmlns:xodm="http://www.corel.com/coreldraw/odm/2003">
 <defs>
  <style type="text/css">
   <![CDATA[
    .fil0 {fill:#FF6600}
    .fil1 {fill:#FEFEFE;fill-rule:nonzero}
   ]]>
  </style>
 </defs>
 <g id="Layer_x0020_1">
  <metadata id="CorelCorpID_0Corel-Layer"/>
  <rect class="fil0" y="-0" width="4978.31" height="2242.26"/>
  <path class="fil1" d="M249.42 1883.26c6.17,-2.65 13.37,-4.37 21.59,-5.22 11.91,-1.28 20.73,-4.2 26.65,-8.48 4.54,-9.25 6.77,-32.73 6.77,-70.42l0 -39.67 0.51 -23.9 -0.51 -17.57 0.51 -32.46 -0.77 -81.65c0,-9.25 -1.37,-15.25 -4.02,-18.16 -3.86,-4.2 -14.14,-8.05 -30.76,-11.56 -6.86,-1.45 -11.06,-2.83 -12.6,-4.03 -1.45,-1.28 -2.39,-3.59 -2.74,-7.02 3.85,-0.77 6.51,-1.2 8.05,-1.2l17.82 0 9.34 -0.25c6.17,0 13.02,0.69 20.56,2.05 15.42,1.03 31.27,1.55 47.55,1.55 4.63,0 11.4,-0.26 20.05,-0.69 23.13,-1.28 39.75,-1.88 49.78,-1.88 20.31,0 39.41,1.97 57.4,6 17.99,4.03 36.58,11.4 55.69,22.27 11.91,6.86 24.08,17.65 36.59,32.38 12.42,14.74 21.93,30.85 28.36,48.32 6.43,17.39 9.68,37.01 9.68,58.85 0,19.54 -3.59,38.9 -10.7,58.1 -7.11,19.19 -16.97,35.81 -29.73,49.85 -12.76,14.14 -25.61,24.77 -38.72,31.79 -13.03,7.11 -32.99,13.28 -59.72,18.42 -11.05,1.97 -30.93,3 -59.55,3 -18.93,0 -34.35,-0.51 -46.26,-1.46 -4.63,-0.6 -9.68,-0.86 -15.08,-0.86 -0.77,0 -1.71,0.08 -2.74,0.25l-102.46 2.06 -0.52 -1.97c-0.34,-0.86 -0.51,-1.71 -0.51,-2.74l0.51 -3.68zm127.83 -10.45c12.67,4.37 25.53,6.52 38.64,6.52 16.88,0 33.5,-2.66 49.69,-7.88 16.27,-5.32 30.58,-12.68 43.09,-22.36 12.43,-9.6 22.7,-20.39 30.76,-32.56 7.96,-12.08 13.71,-22.96 17.05,-32.73 4.71,-14.13 7.02,-32.64 7.02,-55.34 0,-21.76 -4.62,-43.78 -13.79,-66.23 -6.34,-15.5 -17.56,-30.32 -33.5,-44.55 -16.02,-14.22 -34.87,-24.59 -56.63,-31.19 -21.76,-6.6 -45.32,-9.94 -70.59,-9.94 -17.39,0 -30.24,1.88 -38.64,5.74 -1.03,1.03 -1.97,2.23 -3,3.51 -1.03,4.2 -1.54,8.05 -1.54,11.56 0,2.14 0.09,4.71 0.26,7.71 0.51,19.45 0.77,34.95 0.77,46.69l-0.25 56.89c0,83.53 1.54,130.05 4.62,139.47 3.08,9.42 11.82,17.65 26.05,24.67zm441.99 -116.34l-100.76 1.11 -19.1 -0.34c-7.8,0 -15.77,0.26 -23.82,0.77 -1.54,4.97 -2.31,8.4 -2.31,10.29l0.26 2.48 0 2.48 -0.26 12.25c0,10.19 3.26,22.61 9.69,37.35 6.43,14.83 15.68,26.05 27.67,33.84 11.99,7.72 26.9,11.82 44.81,12.34 9.59,-0.51 17.22,-1.71 22.88,-3.51 5.74,-1.88 13.79,-6.17 24.15,-12.93l18.08 -14.91 1.54 10.11c0,1.2 -0.08,2.48 -0.26,3.77 -7.54,9.59 -17.05,17.91 -28.62,25.1 -11.56,7.2 -23.22,12.51 -35.13,15.85 -5.74,1.45 -15.07,2.23 -28.1,2.23 -11.91,0 -23.65,-2.4 -35.13,-7.28 -17.13,-7.28 -30.5,-19.11 -40.35,-35.39 -9.77,-16.28 -14.65,-36.07 -14.65,-59.2 0,-7.37 1.37,-16.8 4.11,-28.36 2.83,-11.48 7.8,-23.73 14.99,-36.75 4.88,-8.82 10.8,-16.1 17.82,-21.76 10.02,-8.05 18.85,-13.62 26.39,-16.79 10.88,-4.55 23.56,-6.77 37.95,-6.77 15.6,0 28.27,2.82 38.21,8.56 13.37,7.54 23.39,17.31 29.98,29.22 6.6,11.91 9.94,22.79 9.94,32.73l0 3.51zm-140.42 -8.74l11.82 0c8.57,0 34.18,-1.37 76.76,-4.11 6.68,-0.34 10.8,-1.03 12.34,-2.06 3,-3.17 4.54,-6.08 4.54,-8.57 0,-5.23 -1.71,-11.23 -5.05,-17.82 -3.34,-6.69 -8.57,-11.83 -15.51,-15.42 -7.02,-3.68 -15.08,-5.48 -24.33,-5.48 -19.53,0 -35.21,7.37 -46.95,22.01 -9.08,11.14 -13.62,21.68 -13.62,31.44zm149.16 -170.66l0 -5.66c4.71,-1.55 9.85,-3.08 15.6,-4.71 8.39,-2.65 20.81,-6.77 37.35,-12.25l11.82 0c0,8.05 0,12.68 0,13.79 0,137.59 -0.34,219.58 -1.03,246.05 0,15.51 0,23.82 0,24.85 0,18.76 0.77,29.21 2.23,31.44 1.97,2.99 7.97,5.05 18.08,6.25 10.11,1.2 16.02,2.31 17.82,3.51 1.29,0.69 1.98,1.88 1.98,3.6 0,1.88 -0.35,3.17 -1.12,3.94 -0.77,0.77 -2.15,1.2 -4.2,1.2 -1.12,0 -9.94,-0.26 -26.39,-0.86l-33.07 -1.2 -42.33 2.06c-2.65,0.17 -4.71,-0.34 -6,-1.55 -1.03,-0.94 -1.54,-2.14 -1.54,-3.76 0,-1.72 0.51,-3 1.62,-3.77 1.12,-0.77 7.2,-2.15 18.17,-3.95 11.05,-1.88 17.39,-3.43 18.94,-4.62 1.62,-1.29 2.65,-4.12 3.17,-8.49 0.69,-5.99 1.03,-22.96 1.03,-50.88l-0.25 -57.75 0.77 -59.8 -0.25 -59.71 0.77 -29.38c0,-5.83 -0.94,-10.12 -2.83,-12.68 -1.8,-2.57 -5.74,-5.14 -11.74,-7.62 -9.08,-3.68 -15.25,-6.34 -18.59,-8.05zm121.57 2.22c0,-5.48 2.14,-10.28 6.34,-14.22 4.19,-4.03 9.33,-5.99 15.24,-5.99 6.17,0 11.56,2.22 16.2,6.77 4.62,4.46 6.93,9.25 6.93,14.39 0,5.22 -2.31,10.02 -6.93,14.65 -4.63,4.54 -10.03,6.86 -16.2,6.86 -6.08,0 -11.22,-2.06 -15.33,-6.26 -4.2,-4.11 -6.25,-9.51 -6.25,-16.19zm-21.59 130.4l0.26 -7.46c11.05,-3.17 16.96,-5.06 17.82,-5.57 6.17,-2.66 12.59,-6.77 19.27,-12.34 6.69,-5.49 12.34,-11.74 16.96,-18.59 2.06,-0.34 3.6,-0.51 4.8,-0.51l3.09 0.25c0.68,8.05 1.03,13.96 1.03,17.65 0,0.77 -0.17,4.54 -0.52,11.31l0 13.28 0.25 72.48 -0.77 76.76c-0.17,6.26 0.86,10.54 3,13.02 2.15,2.39 8.57,5.14 19.28,8.14 6.69,1.89 11.65,3.43 14.99,4.8 0.51,1.11 0.77,2.14 0.77,2.99 0,0.95 -0.43,2.23 -1.28,3.68 -6.51,-0.17 -14.99,-0.6 -25.19,-1.28 -14.05,-1.2 -23.3,-1.8 -27.84,-1.8 -2.15,0 -15.59,0.34 -40.36,1.03 -5.05,0.17 -9.94,0.52 -14.65,1.04 -0.86,0 -2.23,-0.26 -4.03,-0.86 -0.86,-1.28 -1.28,-2.4 -1.28,-3.34 0,-2.57 1.63,-4.63 4.8,-6.08 0.68,-0.34 9.17,-2.23 25.61,-5.74 5.4,-0.95 8.91,-2.66 10.53,-4.97 2.83,-3.51 4.29,-9.08 4.29,-16.7 0.34,-12.77 0.52,-47.81 0.52,-105.13 0,-11.39 -0.52,-18.59 -1.54,-21.42 -0.86,-1.97 -3.08,-4.19 -6.68,-6.77 -3.6,-2.57 -11.31,-5.23 -23.13,-7.88zm74.45 -20.57c18.59,0.17 34.78,0.86 48.66,2.06 9.85,0 17.05,-0.17 21.59,-0.51 3.17,-0.17 5.23,-0.26 6,-0.26l28.1 0.26c3.85,0.77 6.93,1.2 9.33,1.37 1.03,0.43 1.89,1.37 2.74,3.08 0,1.8 -0.51,3.77 -1.54,5.83 -2.82,0.77 -5.74,1.28 -8.74,1.37 -12.59,1.28 -23.13,3.09 -31.61,5.4 -1.2,0.86 -1.8,1.62 -1.8,2.39 0,1.54 0.86,4.03 2.57,7.28 0.34,0.86 1.03,2.83 2.23,6l25.02 60.14c11.23,27.59 21.59,50.81 31.1,69.74 6.51,-12.43 12.51,-25.19 17.99,-38.38 5.49,-13.19 13.63,-34.01 24.25,-62.37 3,-8.05 5.82,-17.82 8.57,-29.38 0.43,-2.23 0.68,-4.2 0.68,-5.82 0,-1.97 -1.12,-4.12 -3.34,-6.51 -2.31,-2.31 -6.08,-4.2 -11.48,-5.66 -1.12,-0.17 -8.74,-1.37 -22.88,-3.68 -1.2,-0.77 -2.23,-1.8 -3.26,-3.09l0 -2.23c0,-0.86 0.09,-2.06 0.26,-3.6 4.03,-0.51 6.94,-0.85 8.82,-0.85l29.65 0.34c1.97,0 6.77,-0.34 14.31,-0.86 26.64,0 42.66,0.25 48.06,0.77 0.94,0.34 1.89,1.28 2.74,3 0,1.46 -0.51,3.17 -1.54,4.97l-7.89 1.97c-2.06,0.17 -3.68,0.34 -4.88,0.52 -14.65,1.37 -23.64,3.34 -27.07,5.99 -2.57,1.89 -6.6,10.45 -11.99,25.79 -2.48,7.54 -6.17,17.05 -10.97,28.53l-12.85 31.61c-1.8,4.54 -3.86,9.42 -6,14.82l-38.47 89.7 -7.71 0c-1.54,-4.02 -3.35,-8.22 -5.49,-12.51l-18.93 -40.35 -44.64 -105.04c-9,-20.39 -14.39,-31.44 -16.28,-33.07 -1.8,-1.72 -12.51,-5.23 -32.04,-10.53 -1.03,-2.75 -1.54,-4.71 -1.54,-5.92l0.26 -2.31zm413.72 67.34l-100.76 1.11 -19.1 -0.34c-7.8,0 -15.76,0.26 -23.82,0.77 -1.54,4.97 -2.31,8.4 -2.31,10.29l0.25 2.48 0 2.48 -0.25 12.25c0,10.19 3.26,22.61 9.68,37.35 6.42,14.83 15.68,26.05 27.67,33.84 11.99,7.72 26.9,11.82 44.8,12.34 9.6,-0.51 17.22,-1.71 22.88,-3.51 5.74,-1.88 13.79,-6.17 24.15,-12.93l18.08 -14.91 1.54 10.11c0,1.2 -0.09,2.48 -0.26,3.77 -7.54,9.59 -17.05,17.91 -28.62,25.1 -11.56,7.2 -23.22,12.51 -35.12,15.85 -5.74,1.45 -15.08,2.23 -28.1,2.23 -11.91,0 -23.65,-2.4 -35.13,-7.28 -17.14,-7.28 -30.5,-19.11 -40.35,-35.39 -9.77,-16.28 -14.65,-36.07 -14.65,-59.2 0,-7.37 1.37,-16.8 4.11,-28.36 2.82,-11.48 7.79,-23.73 14.99,-36.75 4.88,-8.82 10.79,-16.1 17.82,-21.76 10.02,-8.05 18.85,-13.62 26.39,-16.79 10.88,-4.55 23.56,-6.77 37.95,-6.77 15.59,0 28.27,2.82 38.21,8.56 13.37,7.54 23.39,17.31 29.99,29.22 6.6,11.91 9.94,22.79 9.94,32.73l0 3.51zm-140.42 -8.74l11.82 0c8.57,0 34.19,-1.37 76.77,-4.11 6.68,-0.34 10.79,-1.03 12.34,-2.06 3,-3.17 4.54,-6.08 4.54,-8.57 0,-5.23 -1.71,-11.23 -5.05,-17.82 -3.34,-6.69 -8.57,-11.83 -15.5,-15.42 -7.03,-3.68 -15.08,-5.48 -24.33,-5.48 -19.53,0 -35.22,7.37 -46.95,22.01 -9.09,11.14 -13.62,21.68 -13.62,31.44zm146.59 142.39l-1.03 -3.34c0,-1.2 0.77,-3 2.31,-5.4l14.82 -3 20.99 -3.85c1.72,-0.86 2.83,-1.97 3.51,-3.51 1.03,-2.23 1.54,-8.65 1.54,-19.45 0,-57.32 -0.35,-90.39 -1.03,-99.29 -0.6,-8.83 -2.14,-14.4 -4.46,-16.79 -2.31,-2.31 -8.39,-4.2 -17.99,-5.58 -5.74,-0.77 -10.2,-1.88 -13.54,-3.26l1.03 -7.45c17.47,-7.2 29.3,-13.37 35.3,-18.5 8.31,-7.54 15.42,-17.39 21.24,-29.56l8.31 0.26c0.94,8.31 1.46,26.81 1.46,55.43l-0.25 4.28c0,1.03 0.17,2.57 0.51,4.71 6.42,-11.48 14.39,-22.1 23.98,-31.87l5.83 -5.74c2.31,-2.65 4.62,-4.71 6.86,-6.25 11.74,-7.02 20.48,-10.54 26.22,-10.54 7.46,0 13.45,2.48 18.16,7.45 4.71,4.88 7.11,10.97 7.11,18.16 0,5.74 -1.71,10.12 -5.06,13.37 -4.54,4.2 -9.77,6.25 -15.68,6.25 -2.65,0 -7.97,-1.45 -15.85,-4.37 -7.97,-2.91 -13.19,-4.37 -15.68,-4.37 -4.71,0 -7.97,0.77 -9.85,2.31 -4.71,3.68 -10.46,11.22 -17.14,22.71 -5.22,8.56 -7.88,16.44 -7.88,23.73l1.28 41.73 0.51 50.2c0.52,5.74 1.2,9.42 1.97,11.14 0.68,1.2 2.4,2.57 5.06,4.29 18.08,1.54 28.78,2.65 32.13,3.34 2.31,0.17 4.03,0.34 5.22,0.51 7.2,0.08 12.17,1.12 15.08,3 1.45,0.86 2.23,2.06 2.23,3.77 0,0.95 -0.69,2.31 -1.97,3.95l-27.93 -0.52 -10.53 -0.26 -15.25 0.26 -25.62 0 -13.79 1.03 -42.15 1.03zm177.86 -310.83c0,-5.48 2.14,-10.28 6.34,-14.22 4.2,-4.03 9.33,-5.99 15.25,-5.99 6.17,0 11.56,2.22 16.19,6.77 4.62,4.46 6.93,9.25 6.93,14.39 0,5.22 -2.31,10.02 -6.93,14.65 -4.63,4.54 -10.03,6.86 -16.19,6.86 -6.08,0 -11.22,-2.06 -15.34,-6.26 -4.2,-4.11 -6.25,-9.51 -6.25,-16.19zm-21.59 130.4l0.25 -7.46c11.05,-3.17 16.97,-5.06 17.82,-5.57 6.17,-2.66 12.6,-6.77 19.28,-12.34 6.68,-5.49 12.34,-11.74 16.96,-18.59 2.06,-0.34 3.6,-0.51 4.8,-0.51l3.09 0.25c0.68,8.05 1.03,13.96 1.03,17.65 0,0.77 -0.17,4.54 -0.51,11.31l0 13.28 0.25 72.48 -0.77 76.76c-0.17,6.26 0.85,10.54 3,13.02 2.14,2.39 8.57,5.14 19.28,8.14 6.69,1.89 11.65,3.43 14.99,4.8 0.52,1.11 0.77,2.14 0.77,2.99 0,0.95 -0.43,2.23 -1.28,3.68 -6.51,-0.17 -14.99,-0.6 -25.19,-1.28 -14.05,-1.2 -23.3,-1.8 -27.84,-1.8 -2.14,0 -15.59,0.34 -40.35,1.03 -5.05,0.17 -9.94,0.52 -14.65,1.04 -0.86,0 -2.22,-0.26 -4.02,-0.86 -0.86,-1.28 -1.28,-2.4 -1.28,-3.34 0,-2.57 1.62,-4.63 4.79,-6.08 0.69,-0.34 9.17,-2.23 25.62,-5.74 5.4,-0.95 8.91,-2.66 10.53,-4.97 2.83,-3.51 4.29,-9.08 4.29,-16.7 0.34,-12.77 0.51,-47.81 0.51,-105.13 0,-11.39 -0.51,-18.59 -1.54,-21.42 -0.86,-1.97 -3.08,-4.19 -6.68,-6.77 -3.59,-2.57 -11.31,-5.23 -23.13,-7.88zm93.81 170.14c4.2,-1.2 9,-2.23 14.49,-3 10.53,-1.54 16.79,-3.35 18.93,-5.32 2.06,-2.05 3.08,-6.6 3.08,-13.79l0.52 -9.09c0.17,-3.34 0.25,-7.62 0.25,-12.85l-0.51 -77.19c0,-10.37 -1.37,-17.05 -4.03,-20.14 -4.45,-4.62 -12.85,-7.97 -25.01,-9.76l0 -9c11.99,-3.34 21.25,-7.62 27.67,-13.02 9.43,-7.45 17.3,-17.56 23.73,-30.41l8.74 0.25c0.51,7.97 0.77,13.62 0.77,16.96l0 16.8 0.26 4.54c1.97,-1.28 4.37,-3 7.02,-4.97 10.11,-7.63 20.39,-13.79 31.01,-18.5 10.62,-4.8 19.96,-8.14 28.27,-9.94 5.14,-1.37 11.05,-2.05 17.65,-2.05 13.71,0 25.61,3.68 35.47,11.05 9.94,7.37 16.37,16.11 19.28,26.05 3,10.02 4.46,29.82 4.46,59.54l0 37.95c0,1.03 -0.17,4.37 -0.43,10.02 -0.26,5.74 -0.34,12.26 -0.34,19.62 0,11.74 0.51,19.19 1.54,22.45 0.77,2.15 3,4.37 6.43,6.52 16.02,2.14 25.36,4.79 28.02,7.79l0 1.97c0,1.71 -0.52,3.77 -1.55,6.26l-4.79 0 -33.25 -0.52 -32.81 0.77c-12.08,0.34 -23.3,0.26 -33.5,-0.25l-1.54 -5.83c0,-1.12 0.6,-2.57 1.71,-4.46 4.55,-1.97 10.88,-3.34 19.1,-4.02 4.8,-0.35 8.14,-0.78 10.03,-1.46 1.8,-0.68 4.11,-2.05 6.77,-4.02 1.97,-4.03 3,-7.37 3,-10.03 0,-1.2 -0.17,-3.51 -0.52,-7.02 -0.51,-7.62 -0.86,-26.73 -1.03,-57.32l0 -13.02 0.51 -20.05c0,-21.5 -4.37,-36.32 -13.02,-44.55 -8.66,-8.14 -20.31,-12.26 -34.87,-12.26 -11.14,0 -22.11,2.48 -32.81,7.45 -10.71,4.88 -21.08,12.34 -31.1,22.19 -0.34,8.05 -0.51,14.91 -0.51,20.57l0.77 55.34c0,28.96 0.43,46.61 1.28,53.12 0.34,2.65 0.86,4.54 1.71,5.57 1.37,1.28 4.02,2.4 8.05,3.26 4.03,0.77 8.65,1.97 13.88,3.51 5.31,1.45 8.74,2.39 10.45,2.74 3.35,0.86 5.57,2.57 6.77,5.14l-0.25 5.15 -26.22 0 -53.8 -0.52c-12.51,0 -20.39,0 -23.73,0l-6.25 0 -0.51 -3.26c0,-1.19 0.25,-2.83 0.77,-4.97zm301.4 25.36c-1.98,-1.03 -8.48,-3.77 -19.37,-8.31 -12.76,-8.23 -20.81,-14.4 -24.16,-18.42 -3.34,-4.02 -5.05,-8.39 -5.05,-13.28 0,-4.37 1.29,-7.88 3.77,-10.62 3.6,-3.86 10.88,-7.55 21.68,-11.05 10.8,-3.51 19.7,-6.94 26.73,-10.29 -2.23,-1.54 -5.65,-3.68 -10.28,-6.6 -24.84,-15.34 -37.27,-36.75 -37.27,-64 0,-22.45 7.89,-41.47 23.74,-56.98 15.76,-15.51 36.06,-23.21 60.82,-23.21 11.23,0 21.51,1.63 30.94,4.79 5.31,1.63 13.28,5.91 23.82,12.6 6.68,4.2 10.62,6.51 11.82,7.02 2.65,0.86 5.66,1.28 8.99,1.28 2.83,0 9.77,-0.69 20.74,-2.05 10.96,-1.37 17.39,-2.06 19.45,-2.06 3.85,0 7.02,0.68 9.51,2.14 1.97,3.26 3,8.74 3,16.28 0,2.66 -0.69,4.55 -2.14,5.83 -1.37,1.28 -3.43,1.97 -6.17,1.97 -4.63,0 -12.42,-1.37 -23.22,-4.12 -10.79,-2.74 -17.3,-4.11 -19.7,-4.11 -0.77,0 -2.4,0.17 -4.71,0.51 7.11,14.39 10.71,27.58 10.71,39.5 0,11.9 -3.77,24.15 -11.31,36.92 -7.54,12.76 -17.9,22.45 -31.1,29.22 -13.19,6.68 -26.64,10.02 -40.18,10.02 -0.94,0 -3.85,-0.08 -8.48,-0.25 -15.33,0 -29.3,3.85 -42.06,11.56 -6.17,3.86 -9.25,7.46 -9.25,10.8 0,3.51 3,7.02 9,10.37 15.85,8.57 45.92,13.45 90.21,14.82 19.19,0.69 34.1,3.43 44.81,8.22 10.71,4.88 18.76,11.99 24.16,21.42 5.4,9.42 8.14,19.19 8.14,29.22 0,13.53 -4.62,26.04 -13.79,37.52 -9.25,11.48 -23.22,20.9 -41.98,28.01 -18.76,7.2 -40.27,10.8 -64.6,10.8 -26.73,0 -47.46,-3.26 -62.03,-9.77 -14.56,-6.51 -24.93,-13.54 -31.01,-21.25 -6.08,-7.63 -9.17,-15.25 -9.17,-22.7 0,-6.51 3.35,-14.65 10.11,-24.42 6.77,-9.77 20.73,-19.96 42.06,-30.58 6.26,-3.18 10.54,-5.49 12.85,-6.77zm-10.53 -143.25c0,15 2.22,27.59 6.77,37.61 4.54,10.12 10.79,17.65 18.67,22.54 7.89,4.88 15.85,7.37 23.91,7.37 14.65,0 26.73,-5.57 36.41,-16.62 9.68,-11.05 14.48,-27.93 14.48,-50.63 0,-22.79 -5.05,-40.18 -15.07,-52.09 -10.12,-11.91 -22.28,-17.91 -36.59,-17.91 -15.94,0 -28.01,5.66 -36.23,16.97 -8.23,11.39 -12.34,28.96 -12.34,52.77zm-8.14 231.58c15.16,11.56 34.44,17.39 57.66,17.39 16.54,0 33.07,-2.57 49.52,-7.8 16.45,-5.22 28.44,-12.67 36.07,-22.36 7.62,-9.77 11.39,-18.84 11.39,-27.5 0,-5.32 -1.37,-10.54 -4.03,-15.77 -2.66,-5.23 -6.25,-9.51 -10.79,-12.94 -4.62,-3.43 -10.62,-6.08 -18.16,-8.05 -5.32,-1.55 -12.85,-2.57 -22.71,-3.26 -27.93,-2.23 -45.15,-3.26 -51.41,-3.26 -17.99,0 -34.1,5.91 -48.23,17.91 -10.88,9.25 -16.36,20.39 -16.36,33.32 0,11.91 5.65,22.71 17.05,32.3zm279.9 -389.38l10.36 -37.88c0.69,-5.05 1.54,-8.3 2.74,-9.68 1.19,-1.46 2.48,-2.14 4.03,-2.14 3,0 6.34,3.6 10.19,10.8 2.83,5.22 5.23,8.56 7.03,10.02 1.8,1.37 4.54,2.31 8.05,2.82l2.48 -0.25 10.79 1.03 59.2 0.77 69.92 -0.26 20.56 0 38.9 -0.68c1.71,0 3.76,0.08 6.25,0.43 11.4,1.03 18.42,1.55 21.07,1.55 2.48,0 4.55,-0.86 6,-2.49 0.51,-0.69 3.26,-6.17 8.31,-16.62 2.23,-4.71 4.88,-7.11 8.05,-7.11 1.37,0 3.09,0.34 5.06,1.03 0.85,3.25 1.28,6.25 1.28,8.91l-0.26 10.02 0.26 21.17c0,5.14 -0.43,21.76 -1.28,49.77 0,1.88 -0.35,3.51 -1.04,5.06 -1.8,1.11 -3.42,1.71 -4.71,1.71 -1.37,0 -2.57,-0.6 -3.59,-1.88 -1.03,-1.2 -2.23,-5.05 -3.77,-11.48 -3.34,-14.91 -7.54,-25.62 -12.51,-32.04 -3.34,-4.12 -8.14,-7.11 -14.39,-8.91 -6.26,-1.8 -21.25,-2.74 -44.89,-2.74 -19.02,0 -33.07,0 -42.32,0 -0.26,6.69 -0.43,12.77 -0.43,18.34l1.97 155.66c0,6.17 -0.34,17.91 -1.03,35.13l0.26 33.33 -0.26 18.59c0,5.82 1.03,10.02 3,12.51 2.06,2.48 7.54,4.97 16.36,7.28 15.42,3.85 25.7,6.17 30.93,7.03 3.17,0.34 5.82,1.11 7.8,2.14l0 8.13 -35.72 -0.94c-19.62,-0.08 -34.36,-0.51 -44.21,-1.11l-36.75 1.63 -26.81 1.45c-7.62,0 -12.17,-0.17 -13.88,-0.51l-3.5 -1.46c0.34,-3.77 1.12,-6.17 2.22,-7.28 1.2,-1.03 4.29,-1.88 9.34,-2.57 7.03,-1.03 15.34,-2.83 24.94,-5.4 9.59,-2.57 15.85,-5.23 18.84,-7.88 1.72,-1.54 2.92,-4.03 3.6,-7.54 1.46,-7.37 2.23,-21.84 2.23,-43.52l0 -42.67 -1.03 -93.21 -1.03 -20.05 -0.26 -67.08c-10.53,0 -23.99,0 -40.43,0 -24.08,0 -38.73,1.46 -43.95,4.37 -8.22,4.54 -20.39,17.82 -36.67,39.84 -5.4,8.22 -10.11,12.34 -14.22,12.34l-2.23 -0.52c-0.69,-1.03 -1.03,-1.88 -1.03,-2.74 0,-2.05 1.37,-8.05 4.03,-18.08 3.43,-12.85 5.48,-21.59 6.17,-26.13zm272.18 285.97l-1.02 -3.34c0,-1.2 0.77,-3 2.3,-5.4l14.82 -3 20.99 -3.85c1.71,-0.86 2.83,-1.97 3.51,-3.51 1.03,-2.23 1.54,-8.65 1.54,-19.45 0,-57.32 -0.34,-90.39 -1.03,-99.29 -0.6,-8.83 -2.14,-14.4 -4.46,-16.79 -2.31,-2.31 -8.39,-4.2 -17.99,-5.58 -5.74,-0.77 -10.2,-1.88 -13.53,-3.26l1.02 -7.45c17.48,-7.2 29.31,-13.37 35.3,-18.5 8.31,-7.54 15.42,-17.39 21.25,-29.56l8.3 0.26c0.95,8.31 1.46,26.81 1.46,55.43l-0.26 4.28c0,1.03 0.17,2.57 0.51,4.71 6.43,-11.48 14.4,-22.1 23.99,-31.87l5.83 -5.74c2.3,-2.65 4.62,-4.71 6.85,-6.25 11.74,-7.02 20.48,-10.54 26.22,-10.54 7.45,0 13.45,2.48 18.17,7.45 4.71,4.88 7.11,10.97 7.11,18.16 0,5.74 -1.72,10.12 -5.06,13.37 -4.54,4.2 -9.77,6.25 -15.68,6.25 -2.66,0 -7.97,-1.45 -15.85,-4.37 -7.97,-2.91 -13.19,-4.37 -15.68,-4.37 -4.71,0 -7.97,0.77 -9.85,2.31 -4.71,3.68 -10.45,11.22 -17.13,22.71 -5.23,8.56 -7.89,16.44 -7.89,23.73l1.28 41.73 0.51 50.2c0.52,5.74 1.2,9.42 1.97,11.14 0.69,1.2 2.4,2.57 5.05,4.29 18.08,1.54 28.79,2.65 32.13,3.34 2.31,0.17 4.03,0.34 5.23,0.51 7.19,0.08 12.16,1.12 15.07,3 1.46,0.86 2.23,2.06 2.23,3.77 0,0.95 -0.68,2.31 -1.97,3.95l-27.94 -0.52 -10.53 -0.26 -15.25 0.26 -25.62 0 -13.79 1.03 -42.16 1.03zm345.95 -35.98c1.03,2.14 1.54,3.77 1.54,4.8 0,2.48 -2.06,6.86 -6.08,13.28 -5.14,8.31 -10.97,14.4 -17.3,18.25 -4.03,2.48 -9.6,3.77 -16.62,3.77 -12.08,0 -21.16,-3.68 -27.24,-11.14 -3.68,-4.37 -6.26,-12.17 -7.8,-23.47l-28.1 19.53c-9.85,5.66 -17.39,9.25 -22.61,10.8 -8.4,2.14 -18.42,3.25 -30.16,3.25 -8.48,0 -15.25,-2.57 -20.22,-7.62 -4.88,-5.14 -7.37,-11.65 -7.37,-19.7 0,-11.57 7.11,-25.27 21.25,-41.38 14.22,-16.02 33.49,-29.13 57.82,-39.32 17.14,-7.2 27.59,-11.82 31.44,-13.79 0.35,-5.57 0.52,-11.74 0.52,-18.34 0,-21.5 -3,-36.07 -9,-43.69 -5.91,-7.62 -14.48,-11.48 -25.53,-11.48 -11.65,0 -22.44,4.62 -32.56,13.79 -6.25,5.74 -10.96,16.62 -14.13,32.64 -1.03,4.37 -2.91,9.17 -5.74,14.31 -7.2,4.71 -12.94,7.11 -17.22,7.11 -3.68,0 -7.02,-1.12 -10.03,-3.26 -1.63,-1.2 -2.48,-2.57 -2.48,-4.11 0,-4.37 4.62,-14.31 13.96,-29.73 9.25,-15.42 20.99,-26.98 35.13,-34.69 14.13,-7.63 26.46,-11.48 37.01,-11.48 14.31,0 25.02,1.28 32.04,3.94 7.02,2.57 13.28,7.11 18.59,13.71 5.4,6.6 8.65,13.71 9.76,21.42 0.69,3.68 1.03,16.88 1.03,39.58l-0.77 40.1 0.25 29.3c0,3.85 -0.08,7.11 -0.25,9.85 -0.17,4.79 -0.26,8.48 -0.26,10.79 0,5.57 1.63,10.02 4.8,13.37 3.17,3.34 7.03,5.05 11.4,5.05 6.34,0 11.82,-3.17 16.36,-9.6l3.08 -4.02c0.77,-0.52 2.66,-1.12 5.49,-1.8zm-72.99 -7.62c1.2,-21.25 1.8,-36.24 1.8,-44.98 0,-4.55 -0.26,-10.63 -0.77,-18.34 -11.4,4.02 -23.39,10.11 -36.15,18.34 -12.68,8.22 -22.79,17.73 -30.24,28.44 -5.4,7.71 -8.13,14.99 -8.13,21.85 0,6.51 2.22,11.99 6.77,16.36 4.46,4.37 10.11,6.51 16.88,6.51 5.31,0 11.65,-1.89 19.1,-5.57 9.85,-4.8 20.05,-12.34 30.76,-22.62zm68.27 33.32c4.2,-1.2 9,-2.23 14.49,-3 10.53,-1.54 16.79,-3.35 18.93,-5.32 2.06,-2.05 3.08,-6.6 3.08,-13.79l0.51 -9.09c0.17,-3.34 0.26,-7.62 0.26,-12.85l-0.51 -77.19c0,-10.37 -1.37,-17.05 -4.03,-20.14 -4.46,-4.62 -12.85,-7.97 -25.02,-9.76l0 -9c11.99,-3.34 21.25,-7.62 27.67,-13.02 9.42,-7.45 17.3,-17.56 23.73,-30.41l8.74 0.25c0.51,7.97 0.77,13.62 0.77,16.96l0 16.8 0.25 4.54c1.97,-1.28 4.37,-3 7.02,-4.97 10.11,-7.63 20.4,-13.79 31.02,-18.5 10.62,-4.8 19.96,-8.14 28.27,-9.94 5.14,-1.37 11.05,-2.05 17.64,-2.05 13.71,0 25.62,3.68 35.47,11.05 9.94,7.37 16.36,16.11 19.28,26.05 3,10.02 4.46,29.82 4.46,59.54l0 37.95c0,1.03 -0.17,4.37 -0.43,10.02 -0.26,5.74 -0.34,12.26 -0.34,19.62 0,11.74 0.52,19.19 1.54,22.45 0.78,2.15 3,4.37 6.43,6.52 16.02,2.14 25.35,4.79 28.01,7.79l0 1.97c0,1.71 -0.52,3.77 -1.54,6.26l-4.79 0 -33.25 -0.52 -32.81 0.77c-12.08,0.34 -23.3,0.26 -33.49,-0.25l-1.54 -5.83c0,-1.12 0.6,-2.57 1.71,-4.46 4.54,-1.97 10.88,-3.34 19.1,-4.02 4.8,-0.35 8.14,-0.78 10.03,-1.46 1.8,-0.68 4.11,-2.05 6.77,-4.02 1.97,-4.03 3,-7.37 3,-10.03 0,-1.2 -0.17,-3.51 -0.52,-7.02 -0.51,-7.62 -0.85,-26.73 -1.03,-57.32l0 -13.02 0.51 -20.05c0,-21.5 -4.37,-36.32 -13.02,-44.55 -8.66,-8.14 -20.31,-12.26 -34.87,-12.26 -11.14,0 -22.11,2.48 -32.82,7.45 -10.71,4.88 -21.08,12.34 -31.1,22.19 -0.34,8.05 -0.51,14.91 -0.51,20.57l0.77 55.34c0,28.96 0.43,46.61 1.28,53.12 0.34,2.65 0.86,4.54 1.71,5.57 1.37,1.28 4.03,2.4 8.05,3.26 4.03,0.77 8.65,1.97 13.88,3.51 5.31,1.45 8.74,2.39 10.45,2.74 3.34,0.86 5.57,2.57 6.77,5.14l-0.26 5.15 -26.22 0 -53.8 -0.52c-12.51,0 -20.39,0 -23.74,0l-6.25 0 -0.51 -3.26c0,-1.19 0.26,-2.83 0.77,-4.97zm269.28 -55.01c6.17,15.94 10.88,26.31 14.05,30.93 6.34,9.59 13.88,17.05 22.71,22.28 8.82,5.31 18.41,7.97 28.78,7.97 9.51,0 18.93,-4.12 28.27,-12.34 6.68,-6.17 10.02,-13.45 10.02,-21.68 0,-10.88 -3.85,-20.99 -11.65,-30.15 -7.8,-9.09 -22.62,-17.74 -44.47,-26.05 -21.76,-8.3 -36.5,-17.22 -44.03,-26.56 -7.62,-9.42 -11.4,-20.13 -11.4,-32.21 0,-11.4 3.08,-21.51 9.25,-30.24 6.08,-8.65 14.57,-15.25 25.36,-19.7 10.88,-4.46 20.81,-6.69 29.98,-6.69 11.74,0 22.36,0.95 31.79,2.75 9.33,1.8 17.47,4.54 24.24,8.3 1.37,8.66 2.48,21.25 3.25,37.96l0.51 8.05c-2.23,0.17 -4.11,0.26 -5.65,0.26l-3.6 0c-4.97,-13.97 -12.51,-25.11 -22.62,-33.25 -10.2,-8.14 -20.22,-12.25 -30.07,-12.25 -9.94,0 -17.91,3.09 -23.99,9.25 -6.08,6.17 -9.17,14.22 -9.17,24.16 0,7.54 2.48,14.31 7.45,20.22 4.97,5.91 16.62,12.51 34.87,19.88 18.34,7.28 31.7,14.22 40.1,20.73 8.39,6.43 14.56,14.31 18.5,23.64 4.03,9.25 5.99,18.08 5.99,26.56 0,11.56 -3.77,22.45 -11.39,32.55 -7.54,10.12 -17.05,17.22 -28.44,21.42 -11.48,4.12 -21.68,6.17 -30.68,6.17 -21.16,0 -40.61,-3.94 -58.43,-11.82 -1.72,-1.28 -2.66,-3.85 -2.74,-7.53 0,-1.46 -0.17,-3.95 -0.51,-7.29 -2.66,-22.7 -4.03,-36.07 -4.03,-40.26 0,-2.06 0.43,-3.34 1.29,-4.03 0.77,-0.69 2.91,-1.03 6.42,-1.03zm138.36 194.31c-0.17,-1.97 -0.26,-3.68 -0.26,-5.31 0,-1.19 0.17,-2.74 0.52,-4.45l25.1 -5.06c4.03,-1.97 7.28,-4.37 9.85,-7.19 0.86,-3.09 1.2,-6.08 1.2,-9.09 0,-25.7 -0.6,-74.79 -1.97,-147.19l-0.77 -91.84c-0.35,-14.48 -1.2,-23.73 -2.75,-27.58 -0.86,-1.97 -2.06,-3.6 -3.77,-4.71 -4.2,-3.17 -12.51,-5.91 -25.1,-8.05l1.53 -7.45c17.99,-7.72 29.99,-13.71 36.07,-17.99 6.08,-4.29 11.91,-10.29 17.39,-17.99l3.51 -0.78c1.28,0 3.26,0.52 5.74,1.54 -0.17,10.45 -0.26,17.39 -0.26,20.73l0.26 27.5c12.34,-9.34 25.1,-16.27 38.47,-20.82 13.28,-4.54 27.07,-6.86 41.38,-6.86 25.62,0 47.21,9.09 64.85,27.25 17.65,18.17 26.47,41.55 26.47,70.16 0,21.25 -4.97,40.36 -14.99,57.23 -9.94,16.88 -23.74,29.56 -41.3,37.87 -17.48,8.4 -35.13,12.6 -52.95,12.6 -15.08,0 -32.38,-4.12 -51.83,-12.34 -3.17,-1.37 -6.08,-2.48 -8.56,-3.51 -0.34,13.45 -0.52,25.36 -0.52,35.81 0,51.83 1.46,80.87 4.29,87.13 1.54,3.35 6.25,5.31 14.22,6 13.45,1.03 22.45,3 26.82,5.82 2.48,1.54 4.2,4.54 5.05,9.08l-24.84 0.52 -22.62 -0.52 -37.61 0 -32.64 -0.51zm65.53 -287.6c-0.34,2.39 -0.51,4.54 -0.51,6.6 0,59.8 0.6,93.3 1.8,100.49 2.31,13.2 7.02,22.53 14.05,27.84 10.88,8.57 26.39,12.85 46.61,12.85 20.91,0 38.55,-7.28 52.95,-21.77 14.39,-14.48 21.59,-33.24 21.59,-56.37 0,-27.84 -7.63,-49.86 -22.79,-66.14 -15.25,-16.19 -35.3,-24.33 -60.23,-24.33 -10.53,0 -20.22,1.72 -29.13,5.15 -8.82,3.42 -16.96,8.65 -24.33,15.68zm375.42 122.6c1.03,2.14 1.54,3.77 1.54,4.8 0,2.48 -2.06,6.86 -6.08,13.28 -5.14,8.31 -10.97,14.4 -17.3,18.25 -4.03,2.48 -9.6,3.77 -16.62,3.77 -12.08,0 -21.16,-3.68 -27.24,-11.14 -3.68,-4.37 -6.26,-12.17 -7.8,-23.47l-28.11 19.53c-9.85,5.66 -17.39,9.25 -22.61,10.8 -8.4,2.14 -18.42,3.25 -30.16,3.25 -8.48,0 -15.25,-2.57 -20.22,-7.62 -4.88,-5.14 -7.36,-11.65 -7.36,-19.7 0,-11.57 7.11,-25.27 21.24,-41.38 14.23,-16.02 33.5,-29.13 57.83,-39.32 17.14,-7.2 27.59,-11.82 31.44,-13.79 0.35,-5.57 0.52,-11.74 0.52,-18.34 0,-21.5 -3,-36.07 -9,-43.69 -5.9,-7.62 -14.48,-11.48 -25.53,-11.48 -11.65,0 -22.44,4.62 -32.55,13.79 -6.26,5.74 -10.97,16.62 -14.14,32.64 -1.03,4.37 -2.91,9.17 -5.74,14.31 -7.2,4.71 -12.94,7.11 -17.22,7.11 -3.68,0 -7.02,-1.12 -10.02,-3.26 -1.63,-1.2 -2.48,-2.57 -2.48,-4.11 0,-4.37 4.62,-14.31 13.96,-29.73 9.25,-15.42 20.99,-26.98 35.12,-34.69 14.14,-7.63 26.47,-11.48 37.01,-11.48 14.31,0 25.02,1.28 32.05,3.94 7.02,2.57 13.28,7.11 18.59,13.71 5.4,6.6 8.65,13.71 9.76,21.42 0.69,3.68 1.03,16.88 1.03,39.58l-0.77 40.1 0.26 29.3c0,3.85 -0.09,7.11 -0.26,9.85 -0.17,4.79 -0.26,8.48 -0.26,10.79 0,5.57 1.63,10.02 4.8,13.37 3.17,3.34 7.03,5.05 11.4,5.05 6.34,0 11.82,-3.17 16.36,-9.6l3.08 -4.02c0.77,-0.52 2.66,-1.12 5.49,-1.8zm-72.99 -7.62c1.2,-21.25 1.8,-36.24 1.8,-44.98 0,-4.55 -0.26,-10.63 -0.77,-18.34 -11.4,4.02 -23.39,10.11 -36.15,18.34 -12.68,8.22 -22.79,17.73 -30.24,28.44 -5.4,7.71 -8.13,14.99 -8.13,21.85 0,6.51 2.22,11.99 6.77,16.36 4.46,4.37 10.11,6.51 16.88,6.51 5.31,0 11.65,-1.89 19.1,-5.57 9.86,-4.8 20.05,-12.34 30.76,-22.62zm68.79 43.61l-1.03 -3.34c0,-1.2 0.77,-3 2.31,-5.4l14.82 -3 20.99 -3.85c1.71,-0.86 2.83,-1.97 3.51,-3.51 1.03,-2.23 1.54,-8.65 1.54,-19.45 0,-57.32 -0.35,-90.39 -1.03,-99.29 -0.6,-8.83 -2.15,-14.4 -4.46,-16.79 -2.31,-2.31 -8.39,-4.2 -17.99,-5.58 -5.74,-0.77 -10.2,-1.88 -13.54,-3.26l1.03 -7.45c17.48,-7.2 29.3,-13.37 35.3,-18.5 8.31,-7.54 15.42,-17.39 21.25,-29.56l8.3 0.26c0.95,8.31 1.46,26.81 1.46,55.43l-0.26 4.28c0,1.03 0.17,2.57 0.51,4.71 6.43,-11.48 14.39,-22.1 23.99,-31.87l5.82 -5.74c2.31,-2.65 4.62,-4.71 6.86,-6.25 11.74,-7.02 20.48,-10.54 26.22,-10.54 7.45,0 13.45,2.48 18.17,7.45 4.7,4.88 7.11,10.97 7.11,18.16 0,5.74 -1.72,10.12 -5.06,13.37 -4.54,4.2 -9.77,6.25 -15.68,6.25 -2.65,0 -7.96,-1.45 -15.85,-4.37 -7.97,-2.91 -13.19,-4.37 -15.68,-4.37 -4.71,0 -7.97,0.77 -9.85,2.31 -4.71,3.68 -10.45,11.22 -17.14,22.71 -5.23,8.56 -7.88,16.44 -7.88,23.73l1.28 41.73 0.51 50.2c0.52,5.74 1.2,9.42 1.97,11.14 0.69,1.2 2.4,2.57 5.05,4.29 18.08,1.54 28.79,2.65 32.13,3.34 2.31,0.17 4.03,0.34 5.23,0.51 7.19,0.08 12.16,1.12 15.07,3 1.45,0.86 2.23,2.06 2.23,3.77 0,0.95 -0.68,2.31 -1.97,3.95l-27.94 -0.52 -10.53 -0.26 -15.25 0.26 -25.61 0 -13.79 1.03 -42.16 1.03zm340.81 -133.65l-100.76 1.11 -19.1 -0.34c-7.8,0 -15.76,0.26 -23.82,0.77 -1.54,4.97 -2.31,8.4 -2.31,10.29l0.26 2.48 0 2.48 -0.26 12.25c0,10.19 3.26,22.61 9.68,37.35 6.43,14.83 15.68,26.05 27.67,33.84 11.99,7.72 26.9,11.82 44.8,12.34 9.6,-0.51 17.22,-1.71 22.88,-3.51 5.74,-1.88 13.79,-6.17 24.16,-12.93l18.08 -14.91 1.54 10.11c0,1.2 -0.08,2.48 -0.25,3.77 -7.54,9.59 -17.05,17.91 -28.62,25.1 -11.56,7.2 -23.21,12.51 -35.12,15.85 -5.74,1.45 -15.08,2.23 -28.1,2.23 -11.91,0 -23.65,-2.4 -35.13,-7.28 -17.14,-7.28 -30.5,-19.11 -40.35,-35.39 -9.77,-16.28 -14.65,-36.07 -14.65,-59.2 0,-7.37 1.37,-16.8 4.11,-28.36 2.83,-11.48 7.8,-23.73 14.99,-36.75 4.88,-8.82 10.79,-16.1 17.82,-21.76 10.03,-8.05 18.85,-13.62 26.39,-16.79 10.88,-4.55 23.56,-6.77 37.95,-6.77 15.59,0 28.27,2.82 38.21,8.56 13.36,7.54 23.39,17.31 29.98,29.22 6.6,11.91 9.94,22.79 9.94,32.73l0 3.51zm-140.42 -8.74l11.82 0c8.57,0 34.19,-1.37 76.77,-4.11 6.68,-0.34 10.79,-1.03 12.34,-2.06 3,-3.17 4.54,-6.08 4.54,-8.57 0,-5.23 -1.71,-11.23 -5.05,-17.82 -3.34,-6.69 -8.57,-11.83 -15.5,-15.42 -7.03,-3.68 -15.08,-5.48 -24.33,-5.48 -19.53,0 -35.21,7.37 -46.95,22.01 -9.08,11.14 -13.62,21.68 -13.62,31.44zm146.07 132.11c4.2,-1.2 8.99,-2.23 14.48,-3 10.53,-1.54 16.8,-3.35 18.94,-5.32 2.05,-2.05 3.08,-6.6 3.08,-13.79l0.51 -9.09c0.17,-3.34 0.26,-7.62 0.26,-12.85l-0.52 -77.19c0,-10.37 -1.37,-17.05 -4.02,-20.14 -4.46,-4.62 -12.85,-7.97 -25.02,-9.76l0 -9c12,-3.34 21.25,-7.62 27.67,-13.02 9.42,-7.45 17.3,-17.56 23.74,-30.41l8.74 0.25c0.51,7.97 0.77,13.62 0.77,16.96l0 16.8 0.26 4.54c1.97,-1.28 4.37,-3 7.02,-4.97 10.11,-7.63 20.39,-13.79 31.01,-18.5 10.62,-4.8 19.96,-8.14 28.27,-9.94 5.14,-1.37 11.05,-2.05 17.65,-2.05 13.71,0 25.61,3.68 35.47,11.05 9.94,7.37 16.36,16.11 19.28,26.05 3,10.02 4.46,29.82 4.46,59.54l0 37.95c0,1.03 -0.17,4.37 -0.43,10.02 -0.26,5.74 -0.35,12.26 -0.35,19.62 0,11.74 0.52,19.19 1.55,22.45 0.77,2.15 3,4.37 6.42,6.52 16.02,2.14 25.36,4.79 28.02,7.79l0 1.97c0,1.71 -0.51,3.77 -1.54,6.26l-4.8 0 -33.24 -0.52 -32.81 0.77c-12.08,0.34 -23.3,0.26 -33.5,-0.25l-1.54 -5.83c0,-1.12 0.59,-2.57 1.71,-4.46 4.55,-1.97 10.88,-3.34 19.11,-4.02 4.8,-0.35 8.14,-0.78 10.03,-1.46 1.8,-0.68 4.11,-2.05 6.77,-4.02 1.98,-4.03 3,-7.37 3,-10.03 0,-1.2 -0.17,-3.51 -0.51,-7.02 -0.51,-7.62 -0.86,-26.73 -1.03,-57.32l0 -13.02 0.52 -20.05c0,-21.5 -4.37,-36.32 -13.02,-44.55 -8.65,-8.14 -20.31,-12.26 -34.87,-12.26 -11.14,0 -22.1,2.48 -32.81,7.45 -10.71,4.88 -21.07,12.34 -31.1,22.19 -0.34,8.05 -0.51,14.91 -0.51,20.57l0.77 55.34c0,28.96 0.43,46.61 1.28,53.12 0.34,2.65 0.86,4.54 1.71,5.57 1.37,1.28 4.03,2.4 8.05,3.26 4.02,0.77 8.65,1.97 13.87,3.51 5.32,1.45 8.74,2.39 10.45,2.74 3.34,0.86 5.57,2.57 6.77,5.14l-0.25 5.15 -26.22 0 -53.81 -0.52c-12.51,0 -20.39,0 -23.73,0l-6.26 0 -0.51 -3.26c0,-1.19 0.26,-2.83 0.77,-4.97zm434.01 -37.53l0.26 16.45c-13.11,13.71 -25.96,23.3 -38.73,28.78 -12.68,5.49 -27.67,8.22 -44.98,8.22 -18.76,0 -35.64,-4.88 -50.72,-14.73 -15.08,-9.85 -26.72,-23.73 -34.87,-41.72 -8.14,-17.91 -12.16,-35.56 -12.16,-52.86 0,-18.94 4.88,-36.93 14.74,-53.81 9.76,-16.88 22.7,-29.47 38.9,-37.78 16.19,-8.31 36.5,-12.42 60.91,-12.42 23.47,0 41.3,4.03 53.55,12.08 6.86,4.71 10.28,10.71 10.28,18.17 0,5.31 -1.71,9.76 -5.23,13.28 -3.51,3.51 -8.05,5.31 -13.62,5.31 -8.31,0 -17.56,-5.23 -27.58,-15.59 -6.17,-6.34 -11.83,-10.71 -16.8,-13.19 -5.05,-2.4 -10.62,-3.6 -16.79,-3.6 -14.91,0 -27.33,6.17 -37.18,18.42 -13.71,17.56 -20.56,39.49 -20.56,65.97 0,27.24 7.02,48.92 21.07,65.12 14.05,16.19 30.5,24.24 49.27,24.24 13.02,0 24.58,-2.14 34.69,-6.43 10.2,-4.28 22.02,-12.25 35.55,-23.9zm-3.08 -152.07c3.68,-0.34 6.77,-0.6 9.25,-0.6l12 0 16.36 -0.51 21.34 0.77 17.3 -0.51c9.17,0 17.39,0.51 24.76,1.71 0.69,1.62 1.03,2.91 1.03,3.94l-0.26 1.89c-3.5,1.63 -8.91,2.83 -16.27,3.51 -10.37,0.85 -17.82,2.82 -22.36,5.74l-0.51 2.92c0,1.71 0.68,4.2 2.05,7.54 0.86,2.06 1.97,5.05 3.26,9.09 3.77,12.34 11.74,36.33 24.08,71.87 8.91,25.62 17.22,47.64 24.76,66.06 4.54,-10.11 9.77,-22.96 15.59,-38.47l21.24 -59.55c4.88,-12.93 8.57,-25.87 11.05,-38.98 1.03,-5.14 1.55,-9.25 1.55,-12.25 0,-2.48 -1.12,-4.88 -3.26,-7.02 -2.23,-2.15 -6.51,-4.03 -13.11,-5.49 -11.82,-3 -18.33,-4.88 -19.27,-5.65 -1.04,-0.77 -1.63,-2.4 -1.8,-4.88 1.03,-0.77 2.15,-1.46 3.51,-1.97l15.59 0 16.79 0.25 25.19 -0.25 16.02 0.25 4.03 -0.25c1.2,0 3.09,0.17 5.82,0.51 1.63,0.94 2.48,2.4 2.48,4.37 0,1.8 -0.77,3.43 -2.22,4.88l-5.06 0.77c-9.68,1.28 -17.14,3.77 -22.36,7.28 -2.83,1.97 -5.31,5.99 -7.28,12.16 -0.69,2.31 -1.8,5.23 -3.26,8.83 -0.86,1.97 -2.05,5.31 -3.68,10.02 -1.54,4.71 -3.59,10.2 -6.08,16.54l-3 7.02 -0.26 1.28 -42.66 112.41 -31.1 84.56c-1.97,4.2 -4.28,9.42 -7.02,15.68 -6.34,11.91 -10.11,18.5 -11.22,19.62 -5.05,6.26 -9.43,10.62 -13.11,13.19l-12.76 5.49c-2.57,0.68 -5.23,1.03 -8.05,1.03 -7.54,0 -13.02,-1.63 -16.54,-4.97 -3.51,-3.26 -5.31,-7.8 -5.31,-13.54 0,-5.4 2.57,-10.28 7.8,-14.65 1.63,-0.51 3.34,-1.12 4.96,-1.97l3.35 -0.77c14.82,2.65 24.16,4.02 27.84,4.02 3.51,-1.88 6.08,-4.02 7.71,-6.51 8.22,-12.25 15.25,-25.87 21.08,-40.95 5.91,-15.07 8.83,-25.19 8.83,-30.33 0,-5.74 -2.15,-14.05 -6.51,-24.93l-27.93 -73.77c-3.86,-9.51 -15.42,-40.61 -34.53,-93.29 -1.19,-3.17 -2.65,-5.57 -4.54,-7.11l-17.05 -5.91 -5.23 -0.95c-2.83,-1.28 -4.29,-3.17 -4.29,-5.57l1.28 -3.59zm-2504.5 -201.06c55.3,0 80.58,62.85 121.9,62.85 123.53,0 137.99,-219.62 137.14,-303.56l-8.33 -811.39c-0.69,-69.06 -75.04,-46.27 -126.86,-55.72 -15.81,-2.88 -26.56,-30.61 3.2,-28.91 109.82,6.29 218.33,-4.16 326.98,2.05 23.12,1.32 19.39,24.59 1.83,25.47 -37.31,1.89 -94.16,-1.97 -93.71,47.59l6.19 688.78c1.5,166.9 -68.4,437.08 -246.31,479.9 -46.79,11.26 -170.82,23.88 -170.82,-50.87 0,-25.77 22.36,-56.19 48.81,-56.19zm1373.51 -1098.53c5.48,35.48 8.33,72.14 8.33,109.52 0,40.28 -20.11,44.8 -34.46,12.23 -45.53,-103.31 -138.7,-150.29 -252.43,-150.32 -237.29,-0.07 -348.79,233.66 -348.79,442.36 0,245.69 94.65,431.31 361.41,425.46 128.51,-15.55 213.22,-57.88 272.48,-173.97 13.33,-26.14 29.08,-22.07 24.66,8.97 -19.77,78.57 -34.05,132.14 -43.1,160.95 -98.12,22.16 -137.71,36.19 -246.18,36.19 -283.8,0 -506.4,-143.07 -506.4,-451.17 0,-310.13 233.1,-480.22 527.36,-480.22 63.09,0 187.9,19.1 237.13,59.99zm635.92 -8.33c6.53,53 6.08,106.79 0.26,159.98 -1.32,12.05 -16.09,14.44 -18.68,1.85 -22.04,-106.78 -90.07,-182.07 -203.72,-182.07 -87.08,0 -180.7,53.81 -180.7,149.27 0,97.87 144.15,159.49 216.9,197.38 123.51,65.13 255.95,127.77 255.95,287.13 0,186.86 -145.36,271.9 -316.42,271.9 -62.61,0 -122.85,-10 -180.47,-30 -46.53,-16.71 -77.7,-21.42 -71.66,-72.86 5.97,-52.84 6.54,-103.25 11.26,-154.94 3.27,-35.62 25.59,-29.56 28.74,-1.96 10.8,117.74 122.04,221.18 240.95,221.18 97.89,0 200.47,-68.35 200.47,-174.75 0,-109.48 -114.43,-168.54 -198.8,-212.61 -115.7,-60.45 -265.46,-133.07 -265.46,-284.75 0,-155.52 140.85,-232.13 281.65,-232.13 78.57,0 135.66,11.19 199.75,57.38zm684.26 0c6.52,53 6.08,106.79 0.26,159.98 -1.32,12.05 -16.09,14.44 -18.68,1.85 -22.03,-106.78 -90.07,-182.07 -203.72,-182.07 -87.07,0 -180.7,53.81 -180.7,149.27 0,97.87 144.15,159.49 216.9,197.38 123.51,65.13 255.94,127.77 255.94,287.13 0,186.86 -145.36,271.9 -316.41,271.9 -62.62,0 -122.85,-10 -180.47,-30 -46.54,-16.71 -77.7,-21.42 -71.66,-72.86 5.98,-52.84 6.54,-103.25 11.26,-154.94 3.27,-35.62 25.58,-29.56 28.74,-1.96 10.79,117.74 122.04,221.18 240.94,221.18 97.89,0 200.47,-68.35 200.47,-174.75 0,-109.48 -114.43,-168.54 -198.8,-212.61 -115.7,-60.45 -265.46,-133.07 -265.46,-284.75 0,-155.52 140.85,-232.13 281.65,-232.13 78.57,0 135.65,11.19 199.75,57.38z"/>
 </g>
</svg>
